<?xml version="1.0" standalone="no"?>
<!DOCTYPE svg PUBLIC "-//W3C//DTD SVG 20010904//EN"
 "http://www.w3.org/TR/2001/REC-SVG-20010904/DTD/svg10.dtd">
<svg version="1.0" xmlns="http://www.w3.org/2000/svg"
 width="2000.000000pt" height="1500.000000pt" viewBox="0 0 2000.000000 1500.000000"
 preserveAspectRatio="xMidYMid meet">

<g transform="translate(0.000000,1500.000000) scale(0.100000,-0.100000)"
fill="#000000" stroke="none">
<path d="M11505 11848 c-108 -253 -193 -463 -189 -468 15 -13 356 -157 413
-174 118 -35 281 -14 379 48 124 78 226 254 247 426 14 118 -30 250 -116 344
-78 85 -108 102 -470 256 l-66 28 -198 -460z m423 237 c197 -85 272 -165 288
-305 12 -111 -51 -283 -137 -371 -67 -68 -118 -92 -215 -97 -75 -4 -87 -2
-174 33 -51 21 -122 50 -156 65 l-63 29 152 355 c84 196 157 354 162 352 6 -2
70 -30 143 -61z"/>
<path d="M7974 12225 c-195 -42 -351 -191 -394 -374 -16 -70 -7 -197 19 -274
109 -313 374 -461 648 -362 175 63 285 178 328 342 58 224 -81 526 -289 628
-111 54 -196 65 -312 40z m234 -149 c147 -75 255 -282 239 -457 -11 -122 -80
-213 -206 -272 -56 -27 -78 -32 -146 -32 -66 0 -90 5 -138 27 -107 51 -204
184 -237 327 -18 79 -9 185 23 247 82 161 309 239 465 160z"/>
<path d="M5172 9507 c-88 -115 -132 -239 -132 -372 0 -201 96 -350 285 -440
111 -53 161 -65 269 -65 147 0 252 45 349 150 90 97 138 217 152 378 l7 81
-43 11 c-24 6 -52 13 -61 16 -16 5 -18 -3 -18 -66 0 -194 -94 -356 -236 -409
-146 -55 -364 -1 -487 122 -53 52 -82 108 -97 187 -19 102 33 254 123 356 22
25 38 46 36 48 -2 2 -27 15 -56 29 l-51 26 -40 -52z"/>
<path d="M14265 9270 c-317 -123 -459 -183 -457 -192 4 -15 214 -561 218 -566
5 -7 104 33 104 43 0 6 -38 109 -85 230 -46 121 -81 223 -77 227 4 3 54 24
112 46 58 22 128 49 156 60 l51 21 68 -180 c38 -98 70 -179 71 -179 4 0 98 41
102 44 2 2 -27 81 -63 176 -36 95 -63 176 -58 181 15 14 268 107 274 100 4 -3
44 -103 89 -221 45 -118 83 -216 84 -217 1 -1 24 6 52 16 34 14 49 25 47 36
-3 34 -208 555 -218 554 -5 0 -217 -81 -470 -179z"/>
<path d="M8314 8756 c-17 -8 -40 -26 -52 -41 l-22 -28 0 -1187 0 -1187 22 -28
c46 -58 -55 -55 1738 -55 1793 0 1692 -3 1738 55 l22 28 0 1187 0 1187 -22 28
c-46 58 56 55 -1740 55 -1361 -1 -1658 -3 -1684 -14z m264 -173 c63 -69 -13
-178 -99 -142 -29 12 -59 54 -59 83 0 51 61 100 110 90 14 -3 35 -17 48 -31z
m237 23 c38 -16 55 -42 55 -83 0 -61 -65 -106 -120 -83 -78 32 -82 133 -7 165
40 18 32 17 72 1z m270 -1 c51 -25 67 -73 40 -124 -41 -80 -165 -50 -165 39 0
43 29 87 63 93 12 2 24 5 25 6 2 0 19 -6 37 -14z m2406 -348 c73 -49 69 1 67
-894 -3 -793 -3 -802 -24 -830 -11 -15 -36 -36 -55 -45 -32 -17 -125 -18
-1514 -18 -1389 0 -1482 1 -1514 18 -19 9 -44 30 -55 45 -21 28 -21 37 -24
835 -2 791 -2 808 18 840 11 18 34 41 52 52 33 20 54 20 1524 20 l1491 0 34
-23z"/>
<path d="M8685 8003 c-10 -80 -12 -83 -56 -83 -37 0 -39 -2 -39 -30 0 -28 3
-30 35 -30 39 0 41 -7 29 -82 -6 -34 -10 -38 -35 -38 -26 0 -29 -4 -29 -30 0
-26 4 -30 26 -30 19 0 24 -4 20 -17 -2 -10 -8 -42 -11 -70 l-7 -53 40 0 40 0
7 48 c13 90 14 92 52 92 31 0 35 -2 30 -22 -3 -13 -9 -44 -12 -70 l-7 -48 40
0 40 0 12 70 12 70 34 0 c31 0 34 3 34 30 0 27 -3 30 -31 30 -30 0 -31 2 -25
31 3 17 6 44 6 60 0 27 3 29 40 29 38 0 40 2 40 30 0 27 -3 30 -30 30 -26 0
-30 4 -30 28 1 15 5 46 9 70 l9 43 -42 -3 -41 -3 -10 -65 -10 -65 -39 -3 c-30
-3 -37 0 -33 11 3 8 8 39 12 70 l7 57 -40 0 -40 0 -7 -57z m125 -172 c0 -16
-3 -43 -6 -60 -6 -28 -10 -31 -42 -31 -35 0 -35 0 -28 38 3 20 6 47 6 60 0 19
5 22 35 22 32 0 35 -3 35 -29z"/>
<path d="M10916 8009 c-25 -19 -26 -25 -26 -109 0 -105 -3 -116 -41 -136 -24
-12 -29 -21 -29 -49 0 -22 5 -35 13 -35 8 0 23 -10 35 -23 19 -20 22 -35 22
-109 0 -110 7 -118 101 -118 l69 0 0 35 c0 33 -2 35 -35 35 l-35 0 0 65 c0 77
-19 130 -50 140 -21 7 -21 8 12 35 33 27 33 29 36 124 l4 96 34 0 c32 0 34 2
34 35 l0 35 -59 0 c-44 0 -65 -5 -85 -21z"/>
<path d="M11170 7996 c0 -32 3 -35 33 -38 l32 -3 5 -94 c5 -92 6 -94 40 -122
24 -20 29 -29 17 -29 -31 0 -52 -49 -57 -134 l-5 -81 -32 3 c-32 3 -33 2 -33
-32 l0 -36 68 0 c94 0 102 10 102 122 0 75 2 87 23 106 13 12 29 22 35 22 7 0
12 14 12 34 0 28 -6 38 -35 55 l-35 20 0 100 c0 96 -1 100 -26 120 -20 16 -41
21 -85 21 l-59 0 0 -34z"/>
<path d="M9987 7018 c-64 -161 -117 -299 -119 -307 -2 -8 13 -19 35 -27 36
-13 38 -12 48 9 5 12 61 150 123 307 l114 285 -31 12 c-18 6 -37 12 -43 12 -6
1 -63 -131 -127 -291z"/>
<path d="M9720 7118 c-52 -21 -146 -59 -207 -84 l-113 -46 0 -37 0 -37 203
-82 c111 -45 206 -82 210 -82 4 0 7 22 7 48 l0 48 -120 50 c-66 27 -120 51
-120 54 0 3 52 28 116 55 64 27 118 54 121 61 2 6 3 29 1 51 l-3 40 -95 -39z"/>
<path d="M10252 7107 l3 -51 118 -50 c64 -27 117 -52 117 -56 0 -3 -54 -28
-120 -55 l-120 -49 0 -48 c0 -26 3 -48 8 -48 4 0 98 37 210 82 l203 81 -3 40
-3 39 -208 83 -208 84 3 -52z"/>
<path d="M5320 7749 c-201 -39 -343 -242 -310 -444 35 -214 241 -364 448 -326
135 25 236 104 295 229 28 60 31 77 31 157 0 80 -3 97 -31 157 -58 123 -161
203 -292 228 -61 11 -78 11 -141 -1z"/>
<path d="M14470 7749 c-110 -22 -216 -104 -273 -213 -30 -58 -32 -67 -32 -171
0 -101 3 -115 29 -169 99 -198 337 -279 533 -179 72 36 155 126 184 200 32 82
33 214 0 295 -45 115 -168 214 -295 237 -67 12 -83 12 -146 0z"/>
<path d="M13644 6033 c-62 -158 -111 -289 -109 -291 11 -12 951 -370 956 -364
8 9 231 584 227 586 -2 2 -27 12 -56 24 -49 20 -53 20 -59 4 -27 -74 -173
-445 -177 -449 -8 -8 -326 120 -326 131 0 7 29 87 65 179 36 92 65 170 65 173
0 7 -92 45 -102 42 -6 -2 -40 -82 -78 -178 -53 -138 -71 -174 -85 -172 -9 2
-74 26 -145 54 l-129 50 23 61 c55 145 148 383 152 389 5 7 -51 34 -90 44 -19
4 -31 -22 -132 -283z"/>
<path d="M5822 6199 c-81 -14 -194 -61 -265 -112 -132 -95 -207 -239 -207
-401 0 -118 69 -297 149 -388 l37 -41 51 27 52 26 -47 63 c-155 204 -158 401
-9 548 57 56 161 110 248 129 78 17 202 9 261 -17 136 -61 218 -211 218 -401
0 -75 2 -83 18 -78 9 3 37 10 61 16 l44 11 -6 97 c-18 345 -284 574 -605 521z"/>
<path d="M8145 3829 c-68 -14 -161 -60 -217 -109 -63 -54 -132 -161 -171 -262
-28 -76 -31 -93 -31 -198 0 -96 4 -124 23 -172 67 -170 249 -302 446 -323 195
-21 389 96 489 295 139 277 79 540 -156 691 -105 68 -270 101 -383 78z m188
-134 c207 -54 317 -221 277 -420 -18 -91 -80 -212 -141 -272 -94 -95 -202
-129 -317 -99 -259 66 -359 293 -241 545 60 130 136 206 242 242 64 23 106 23
180 4z"/>
<path d="M11672 3825 c-66 -15 -474 -183 -468 -194 2 -3 90 -208 196 -456 106
-247 196 -458 201 -467 8 -15 32 -6 206 69 223 96 278 128 346 202 126 135
154 321 79 515 -55 142 -143 243 -257 297 -103 49 -189 58 -303 34z m191 -129
c139 -50 253 -223 264 -402 9 -134 -36 -231 -139 -298 -70 -45 -297 -141 -308
-130 -8 9 -295 677 -302 702 -3 12 135 78 257 122 60 22 174 25 228 6z"/>
</g>
</svg>
