<svg width="80" height="80" viewBox="0 0 80 80" fill="none" xmlns="http://www.w3.org/2000/svg">
<path fill-rule="evenodd" clip-rule="evenodd" d="M74.1697 20.6L70.0507 19.2596C68.5134 18.7532 67.4401 18.1872 66.86 17.6213C66.2799 17.0553 65.9898 16.3404 65.9898 15.5064C65.9898 14.2851 66.4539 13.4213 67.3531 12.8553C68.2523 12.2894 69.5576 12.0213 71.211 12.0213C73.2704 12.0213 75.1268 12.4085 76.7802 13.183C77.2734 13.4213 77.6504 13.5404 77.8825 13.5404C78.3176 13.5404 78.5496 13.2128 78.5496 12.5872V11.1872C78.5496 10.7702 78.4626 10.4426 78.2886 10.2042C78.1145 9.93616 77.8245 9.69787 77.4184 9.45958C77.1283 9.28085 76.7222 9.10213 76.2001 8.92341C75.6779 8.74468 75.1268 8.59574 74.5467 8.44681L74.546 8.44666C73.9371 8.32756 73.3282 8.20846 72.6613 8.11914C72.0231 8.02977 71.356 8 70.7178 8C69.4415 8 68.2233 8.14893 67.063 8.50638C65.9028 8.86382 64.9165 9.37022 64.0463 10.0553C63.1762 10.7106 62.48 11.5447 61.9579 12.4979C61.4358 13.4511 61.1747 14.5532 61.1747 15.8043C61.1747 17.3532 61.6678 18.8128 62.625 20.1234C63.5822 21.4638 65.1486 22.4766 67.2661 23.1617L71.472 24.5021C72.8933 24.9787 73.8796 25.4851 74.4017 26.0511C74.9238 26.617 75.1849 27.3021 75.1849 28.1362C75.1849 29.3574 74.6627 30.3106 73.6765 30.966C72.6903 31.6213 71.269 31.9489 69.4416 31.9489C68.2813 31.9489 67.1501 31.8298 65.9898 31.5915C64.8586 31.3532 63.7853 30.9957 62.7991 30.5489C62.6962 30.5067 62.597 30.4644 62.504 30.4248C62.3348 30.3528 62.1862 30.2895 62.0739 30.2511C61.8999 30.1915 61.7258 30.1617 61.5518 30.1617C61.1167 30.1617 60.8846 30.4596 60.8846 31.0851V32.6043C60.8846 32.8723 60.9426 33.1702 61.0587 33.4383C61.1747 33.7064 61.4938 34.0043 61.9579 34.2723C62.712 34.7191 63.8433 35.1064 65.2936 35.4638C66.7439 35.8213 68.2523 36 69.7606 36C71.24 36 72.6033 35.7915 73.9086 35.3745C75.1559 34.9872 76.2291 34.4511 77.1283 33.7064C78.0275 32.9915 78.7237 32.0979 79.2458 31.0851C79.7389 30.0723 79.9999 28.9106 79.9999 27.6298C79.9999 26.0809 79.5649 24.6808 78.6657 23.4596C77.7664 22.2383 76.2581 21.2851 74.1697 20.6ZM21.2908 30.1007C21.0877 29.4454 20.9717 28.5517 20.9717 27.4496H20.9137V17.7985C20.9137 14.5219 20.1015 12.0794 18.5061 10.4709C16.8818 8.86236 14.3582 8.05811 10.9064 8.05811C9.3111 8.05811 7.80274 8.23683 6.38144 8.62407C4.96013 8.98151 3.74186 9.42832 2.72662 9.96449C2.32052 10.173 2.05947 10.3815 1.91442 10.59C1.76938 10.7985 1.71139 11.156 1.71139 11.6326V13.0922C1.71139 13.7177 1.91442 14.0156 2.32052 14.0156C2.43654 14.0156 2.58158 13.9858 2.78461 13.9262C2.98765 13.8666 3.33576 13.7475 3.79985 13.539C4.81509 13.1219 5.85932 12.7943 6.93255 12.5262C8.00581 12.2581 9.05004 12.139 10.0652 12.139C12.2987 12.139 13.8651 12.5858 14.7933 13.5092C15.6925 14.4326 16.1566 16.0113 16.1566 18.2751V20.4496C14.9964 20.1815 13.8941 19.9432 12.8209 19.7943C11.7476 19.6454 10.7324 19.556 9.74619 19.556C6.75851 19.556 4.40899 20.3305 2.63957 21.8794C0.870193 23.4283 0 25.4837 0 28.0156C0 30.3986 0.725149 32.3049 2.14649 33.7347C3.56783 35.1645 5.51125 35.8794 7.94779 35.8794C11.3706 35.8794 14.2132 34.5092 16.4757 31.7688C16.7948 32.4539 17.0848 33.0198 17.3749 33.5262C17.6649 34.0028 18.013 34.4794 18.4192 34.9262C18.7092 35.1943 18.9993 35.3432 19.2894 35.3432C19.5214 35.3432 19.7824 35.2539 20.0435 35.0752L21.8709 33.8241C22.248 33.5262 22.4221 33.2283 22.4221 32.9305C22.4221 32.722 22.364 32.4837 22.219 32.2454C21.8129 31.4709 21.5229 30.756 21.2908 30.1007ZM16.2147 25.0368C16.2147 26.0496 16.0986 26.9134 15.9246 27.6283C15.7505 28.3432 15.4024 28.9688 14.9384 29.5347C14.1552 30.4283 13.227 31.0836 12.1827 31.4411C11.1385 31.7986 10.1523 31.9773 9.19505 31.9773C7.86076 31.9773 6.84556 31.6198 6.14941 30.8751C5.42423 30.1602 5.07615 29.1177 5.07615 27.7177C5.07615 26.2283 5.54024 25.0964 6.49749 24.2922C7.45466 23.4879 8.876 23.1007 10.8195 23.1007C11.7186 23.1007 12.6178 23.1602 13.5461 23.2794C14.4743 23.3985 15.3735 23.5773 16.2147 23.7858L16.2147 25.0368ZM55.4024 8.77588H58.1C58.5641 8.77588 58.8252 9.01419 58.8252 9.52057C58.8252 9.64779 58.804 9.77502 58.7797 9.92082C58.7756 9.9457 58.7714 9.97112 58.7671 9.99717C58.7381 10.1759 58.6801 10.4142 58.5641 10.7419L51.5736 33.7674C51.3995 34.3631 51.1964 34.7504 50.9644 34.9291C50.7324 35.1078 50.3552 35.227 49.8622 35.227H47.3676C46.8164 35.227 46.4394 35.1376 46.2073 34.9291C45.9753 34.7206 45.7722 34.3334 45.6562 33.7376L41.1602 14.5248L36.6932 33.7078C36.5482 34.3036 36.3741 34.6908 36.1421 34.8993C35.91 35.1078 35.5039 35.1972 34.9818 35.1972H32.4872C31.9651 35.1972 31.617 35.1078 31.385 34.8993C31.1529 34.7206 30.9499 34.3036 30.7758 33.7376L23.9593 10.7121C23.7853 10.1163 23.6982 9.72908 23.6982 9.52056C23.6982 9.04396 23.9303 8.77588 24.3944 8.77588H27.2371C27.7882 8.77588 28.1653 8.86524 28.3683 9.07376C28.6004 9.25248 28.7744 9.66949 28.9485 10.2355L33.8215 29.9546L38.3465 10.2355C38.4916 9.63972 38.6656 9.25248 38.8977 9.07376C39.1298 8.89503 39.5358 8.77588 40.0579 8.77588H42.3785C42.9296 8.77588 43.3067 8.86524 43.5387 9.07376C43.7708 9.25248 43.9738 9.66949 44.0898 10.2355L48.6729 30.1929L53.691 10.2355C53.865 9.63972 54.0681 9.25248 54.2711 9.07376C54.5032 8.89504 54.8803 8.77588 55.4024 8.77588Z" fill="black"/>
<path fill-rule="evenodd" clip-rule="evenodd" d="M65.5153 47.7664C70.5175 42.3077 78.7391 43.8791 79.6969 45.6987C80.6548 47.5597 79.4309 60.3381 74.748 66.4586C74.0296 67.4097 73.3378 66.9135 73.6571 65.6728C74.7214 61.5787 77.0895 52.3568 75.972 50.165C74.8545 47.9319 68.5751 49.0898 65.7282 49.6274C64.8768 49.7928 64.7437 48.6349 65.5153 47.7664ZM40.8505 63.0674C50.5621 63.0674 61.2316 59.9244 71.0497 53.4732C72.513 52.4393 73.7636 54.9619 72.3268 56.6161C63.573 66.6652 50.8548 71.9999 39.9193 71.9999C24.5935 71.9999 10.7844 63.1914 0.354421 48.552C-0.470421 47.3941 0.274599 45.8226 1.25905 46.7324C12.5405 56.9056 26.456 63.0674 40.8505 63.0674Z" fill="#FF9900"/>
</svg>
