<svg width="80" height="80" viewBox="0 0 80 80" fill="none" xmlns="http://www.w3.org/2000/svg">
<path fill-rule="evenodd" clip-rule="evenodd" d="M12.5 60.5625V55.5C12.5 54.8125 12.9375 54.3125 13.625 54.3125H13.8125C14.5 54.3125 14.9375 54.875 14.9375 55.5V66.125C14.9375 68.6875 13.6875 70.75 11.4375 72.0625C10.375 72.6875 9.25 73 8.0625 73H7.5625C5 73 2.9375 71.75 1.625 69.5C1 68.4375 0.6875 67.3125 0.6875 66.125V65.625C0.6875 63.0625 1.9375 61 4.1875 59.6875C5.25 59.0625 6.375 58.75 7.5625 58.75H8.0625C9.75 58.8125 11.25 59.4375 12.5 60.5625ZM3.0625 65.875C3.0625 67.75 4 69.125 5.625 70.0625C6.3125 70.4375 7 70.625 7.75 70.625C9.5625 70.625 10.9375 69.75 11.875 68.1875C12.3125 67.4375 12.5 66.6875 12.5 65.8125C12.5 64.1875 11.75 62.9375 10.4375 62C9.625 61.4375 8.75 61.125 7.8125 61.125C5.8125 61.125 4.375 62.125 3.5 63.9375C3.1875 64.5625 3.0625 65.25 3.0625 65.875ZM23.1875 58.8125H23.5C26.25 58.8125 28.375 60.125 29.6875 62.5625C30.25 63.5 30.5 64.5625 30.5 65.6875V66.1875C30.5 68.75 29.25 70.8125 27 72.125C25.9375 72.75 24.8125 73.0625 23.625 73.0625H23.125C20.5625 73.0625 18.5 71.8125 17.1875 69.5625C16.5625 68.5 16.25 67.375 16.25 66.1875V65.6875C16.25 63.125 17.5625 61.0625 19.75 59.75C20.8125 59.0625 22 58.8125 23.1875 58.8125ZM18.6875 65.875C18.6875 67.6875 19.5625 69 21.125 69.9375C21.875 70.375 22.625 70.5625 23.5 70.5625C25.3125 70.5625 26.625 69.625 27.5625 68.125C28 67.375 28.1875 66.625 28.1875 65.75C28.1875 64.0625 27.375 62.75 26 61.8125C25.25 61.3125 24.375 61.0625 23.5 61.0625C21.5 61.0625 20.0625 62.0625 19.1875 63.875C18.8125 64.5625 18.6875 65.25 18.6875 65.875ZM40.4375 61.375C40.0625 61.1875 39.375 61.125 39 61.125C37 61.0625 35.5625 62.1875 34.6875 63.9375C34.375 64.5625 34.25 65.1875 34.25 65.875C34.25 67.9375 35.3125 69.375 37.125 70.25C37.8125 70.5625 38.625 70.625 39.375 70.625C40 70.625 40.9375 70.25 41.5 69.9375L41.625 69.875H42.125C42.6875 70 43.0625 70.3125 43.0625 70.9375V71.1875C43.0625 72.625 40.375 73 39.375 73.0625C35.8125 73.3125 33.125 71.375 32.125 67.9375C31.9375 67.375 31.875 66.75 31.875 66.125V65.625C31.875 63.0625 33.1875 61 35.375 59.6875C36.4375 59.0625 37.5625 58.75 38.75 58.75H39.25C40.5 58.75 41.6875 59.125 42.75 59.8125L42.8125 59.875L42.875 59.9375C43 60.125 43.0625 60.3125 43.0625 60.5625V60.8125C43.0625 61.4375 42.625 61.75 42.0625 61.875H41.875C41.5625 61.875 40.75 61.5 40.4375 61.375ZM48.1875 63C49.125 62.0625 50.0625 61.125 51 60.25C51.25 60 52.25 58.9375 52.625 58.9375H53.125C53.6875 59.0625 54.0625 59.375 54.0625 60V60.25C54.0625 60.625 53.625 61.125 53.3125 61.375L51.625 63.0625L48.75 66C50 67.25 51.25 68.5 52.4375 69.75L53.4375 70.8125C53.5625 70.9375 53.75 71.0625 53.8125 71.25C53.9375 71.4375 54 71.625 54 71.8125V72.125C53.875 72.6875 53.5 73.125 52.9375 73.125H52.75C52.375 73.125 51.9375 72.6875 51.625 72.4375C51.0625 71.9375 50.5 71.375 50 70.8125L48.1875 69V71.875C48.1875 72.5625 47.75 73.0625 47.0625 73.0625H46.875C46.1875 73.0625 45.75 72.5 45.75 71.875V55.5625C45.75 54.875 46.1875 54.375 46.875 54.375H47.0625C47.75 54.375 48.1875 54.875 48.1875 55.5625V63ZM77.9375 58.875H78.1875C78.875 58.875 79.375 59.375 79.375 60.0625C79.375 61.0625 78.4375 61.3125 77.625 61.3125C76.5625 61.3125 75.5 61.9375 74.8125 62.6875C73.875 63.625 73.5 64.75 73.5 66.0625V71.8125C73.5 72.5 73.0625 73 72.375 73H72.1875C71.5 73 71.0625 72.4375 71.0625 71.8125V65.6875C71.0625 63.3125 72.1875 61.4375 74.125 60.0625C75.25 59.3125 76.5625 58.875 77.9375 58.875ZM61 70.3125C61.875 70.625 62.875 70.5625 63.75 70.4375C64.1875 70.25 65.375 69.75 65.8125 69.8125H65.9375C66.1875 69.9375 66.4375 70.125 66.5625 70.375C66.875 71 66.75 71.625 66.125 72L65.9375 72.125C63.6875 73.4375 61.25 73.25 59 72C57.9375 71.4375 57.125 70.5625 56.5 69.5L56.375 69.25C54.9375 66.75 55.125 64.0625 56.75 61.6875C57.3125 60.875 58.0625 60.25 58.9375 59.75L59.25 59.5625C61.375 58.3125 63.6875 58.4375 65.875 59.5C67.0625 60.0625 68 60.9375 68.6875 62.0625L68.8125 62.25C69.3125 63.0625 68.6875 63.8125 68.0625 64.3125C67.3125 64.875 66.5625 65.5625 65.875 66.1875C64.1875 67.5625 62.5625 68.9375 61 70.3125ZM58.9375 68.875L64.25 64.3125C64.875 63.8125 65.5 63.25 66.125 62.6875C65.625 62.0625 64.8125 61.625 64.1875 61.375C62.8125 60.875 61.4375 61 60.1875 61.75C58.5625 62.6875 57.8125 64.25 57.875 66.125C57.875 66.875 58.125 67.5625 58.5 68.25C58.625 68.5 58.75 68.6875 58.9375 68.875ZM46.0625 21.0625H53.125V28.25H56.6875C58.3125 28.25 60 27.9375 61.5625 27.4375C62.3125 27.1875 63.1875 26.8125 63.9375 26.375C62.9375 25.0625 62.4375 23.4375 62.3125 21.8125C62.125 19.625 62.5625 16.75 64.0625 15.0625L64.8125 14.1875L65.6875 14.875C67.9375 16.6875 69.75 19.125 70.125 22C72.8125 21.1875 75.9375 21.375 78.3125 22.75L79.25 23.3125L78.75 24.3125C76.75 28.1875 72.5625 29.4375 68.5 29.1875C62.375 44.375 49.125 51.5625 33 51.5625C24.6875 51.5625 17.0625 48.4375 12.6875 41.0625L12.625 40.9375L12 39.625C10.5 36.375 10.0625 32.8125 10.375 29.25L10.5 28.1875H16.5V21.0625H23.5625V14H37.625V6.9375H46.0625V21.0625Z" fill="#3A4D54"/>
<path d="M68.875 23.6875C69.375 20 66.625 17.125 64.875 15.75C62.9375 18 62.625 24 65.6875 26.5C63.9375 28 60.375 29.4375 56.625 29.4375H11.5C11.125 33.3125 11.8125 36.875 13.375 39.9375L13.875 40.875C14.1875 41.4375 14.5625 41.9375 14.9375 42.5C16.8125 42.625 18.5 42.6875 20.0625 42.625C23.125 42.5625 25.625 42.1875 27.5625 41.5625C27.875 41.4375 28.125 41.625 28.25 41.875C28.375 42.1875 28.1875 42.4375 27.9375 42.5625C27.6875 42.625 27.4375 42.75 27.125 42.8125C25.625 43.25 24 43.5 21.9375 43.625H21.5625C20.75 43.6875 19.875 43.6875 18.9375 43.6875C17.9375 43.6875 17 43.6875 15.875 43.625C19.625 47.875 25.5 50.375 32.875 50.375C48.5 50.375 61.75 43.4375 67.5625 27.9375C71.75 28.375 75.75 27.3125 77.5625 23.75C74.75 22.125 71 22.625 68.875 23.6875Z" fill="#00AADA"/>
<path d="M68.8749 23.6875C69.3749 20 66.6249 17.125 64.8749 15.75C62.9374 18 62.6249 24 65.6874 26.5C63.9374 28 60.3749 29.4375 56.6249 29.4375H14.1249C13.9374 35.375 16.1249 39.875 20.0624 42.5625C23.1249 42.5 25.6249 42.125 27.5624 41.5C27.8749 41.375 28.1249 41.5625 28.2499 41.8125C28.3749 42.125 28.1874 42.375 27.9374 42.5C27.6874 42.5625 27.4374 42.6875 27.1249 42.75C25.6249 43.1875 23.8749 43.5 21.8124 43.625L21.7499 43.5625C27.0624 46.3125 34.7499 46.25 43.6249 42.875C53.4999 39.0625 62.7499 31.8125 69.1874 23.5625C69.0624 23.625 68.9999 23.6875 68.8749 23.6875Z" fill="#28B8EB"/>
<path d="M11.5625 34.125C11.8125 36.1875 12.4375 38.125 13.375 39.9375L13.875 40.875C14.1875 41.4375 14.5625 41.9375 14.9375 42.5C16.8125 42.625 18.5 42.6875 20.0625 42.625C23.125 42.5625 25.625 42.1875 27.5625 41.5625C27.875 41.4375 28.125 41.625 28.25 41.875C28.375 42.1875 28.1875 42.4375 27.9375 42.5625C27.6875 42.625 27.4375 42.75 27.125 42.8125C25.625 43.25 23.875 43.5625 21.8125 43.6875H21.5625C20.75 43.75 19.875 43.75 19 43.75C18 43.75 17 43.75 15.9375 43.6875C19.6875 47.9375 25.625 50.4375 33 50.4375C46.375 50.4375 58 45.375 64.75 34.1875H11.5625V34.125Z" fill="#028BB8"/>
<path d="M14.5625 34.125C15.375 37.75 17.25 40.625 20.0625 42.5625C23.125 42.5 25.625 42.125 27.5625 41.5C27.875 41.375 28.125 41.5625 28.25 41.8125C28.375 42.125 28.1875 42.375 27.9375 42.5C27.6875 42.5625 27.4375 42.6875 27.125 42.75C25.625 43.1875 23.875 43.5 21.75 43.625C27.0625 46.375 34.75 46.3125 43.5625 42.9375C48.875 40.875 54.0625 37.8125 58.6875 34.125H14.5625Z" fill="#019BC6"/>
<path fill-rule="evenodd" clip-rule="evenodd" d="M17.625 22.1875H23.75V28.3125H17.625V22.1875ZM18.125 22.75H18.625V27.8125H18.125V22.75ZM19.0625 22.75H19.5625V27.8125H19.0625V22.75ZM20 22.75H20.5V27.8125H20V22.75ZM20.875 22.75H21.375V27.8125H20.875V22.75ZM21.8125 22.75H22.3125V27.8125H21.8125V22.75ZM22.75 22.75H23.25V27.8125H22.75V22.75ZM24.6875 15.1875H30.8125V21.25H24.6875V15.1875ZM25.1875 15.6875H25.6875V20.75H25.1875V15.6875ZM26.125 15.6875H26.625V20.75H26.125V15.6875ZM27 15.6875H27.5V20.75H27V15.6875ZM27.9375 15.6875H28.4375V20.75H27.9375V15.6875ZM28.875 15.6875H29.375V20.75H28.875V15.6875ZM29.8125 15.6875H30.3125V20.75H29.8125V15.6875Z" fill="#00ACD3"/>
<path fill-rule="evenodd" clip-rule="evenodd" d="M24.6875 22.1875H30.8125V28.3125H24.6875V22.1875ZM25.1875 22.75H25.6875V27.8125H25.1875V22.75ZM26.125 22.75H26.625V27.8125H26.125V22.75ZM27 22.75H27.5V27.8125H27V22.75ZM27.9375 22.75H28.4375V27.8125H27.9375V22.75ZM28.875 22.75H29.375V27.8125H28.875V22.75ZM29.8125 22.75H30.3125V27.8125H29.8125V22.75Z" fill="#23C2EE"/>
<path fill-rule="evenodd" clip-rule="evenodd" d="M31.75 22.1875H37.875V28.3125H31.75V22.1875ZM32.25 22.75H32.75V27.8125H32.25V22.75ZM33.125 22.75H33.625V27.8125H33.125V22.75ZM34.0625 22.75H34.5625V27.8125H34.0625V22.75ZM35 22.75H35.5V27.8125H35V22.75ZM35.9375 22.75H36.4375V27.8125H35.9375V22.75ZM36.8125 22.75H37.3125V27.8125H36.8125V22.75Z" fill="#00ACD3"/>
<path fill-rule="evenodd" clip-rule="evenodd" d="M31.75 15.1875H37.875V21.25H31.75V15.1875ZM32.25 15.6875H32.75V20.75H32.25V15.6875ZM33.125 15.6875H33.625V20.75H33.125V15.6875ZM34.0625 15.6875H34.5625V20.75H34.0625V15.6875ZM35 15.6875H35.5V20.75H35V15.6875ZM35.9375 15.6875H36.4375V20.75H35.9375V15.6875ZM36.8125 15.6875H37.3125V20.75H36.8125V15.6875ZM38.75 22.1875H44.875V28.3125H38.75V22.1875ZM39.3125 22.75H39.8125V27.8125H39.3125V22.75ZM40.1875 22.75H40.6875V27.8125H40.1875V22.75ZM41.125 22.75H41.625V27.8125H41.125V22.75ZM42.0625 22.75H42.5625V27.8125H42.0625V22.75ZM42.9375 22.75H43.4375V27.8125H42.9375V22.75ZM43.875 22.75H44.375V27.8125H43.875V22.75Z" fill="#23C2EE"/>
<path fill-rule="evenodd" clip-rule="evenodd" d="M38.75 15.1875H44.875V21.25H38.75V15.1875ZM39.3125 15.6875H39.8125V20.75H39.3125V15.6875ZM40.1875 15.6875H40.6875V20.75H40.1875V15.6875ZM41.125 15.6875H41.625V20.75H41.125V15.6875ZM42.0625 15.6875H42.5625V20.75H42.0625V15.6875ZM42.9375 15.6875H43.4375V20.75H42.9375V15.6875ZM43.875 15.6875H44.375V20.75H43.875V15.6875Z" fill="#00ACD3"/>
<path fill-rule="evenodd" clip-rule="evenodd" d="M38.75 8.125H44.875V14.25H38.75V8.125ZM39.3125 8.625H39.8125V13.75H39.3125V8.625ZM40.1875 8.625H40.6875V13.75H40.1875V8.625ZM41.125 8.625H41.625V13.75H41.125V8.625ZM42.0625 8.625H42.5625V13.75H42.0625V8.625ZM42.9375 8.625H43.4375V13.75H42.9375V8.625ZM43.875 8.625H44.375V13.75H43.875V8.625Z" fill="#23C2EE"/>
<path fill-rule="evenodd" clip-rule="evenodd" d="M45.8125 22.1875H51.9375V28.3125H45.8125V22.1875ZM46.3125 22.75H46.8125V27.8125H46.3125V22.75ZM47.25 22.75H47.75V27.8125H47.25V22.75ZM48.1875 22.75H48.6875V27.8125H48.1875V22.75ZM49.0625 22.75H49.5625V27.8125H49.0625V22.75ZM50 22.75H50.5V27.8125H50V22.75ZM50.9375 22.75H51.4375V27.8125H50.9375V22.75Z" fill="#00ACD3"/>
<path fill-rule="evenodd" clip-rule="evenodd" d="M30.375 38.25C31.3125 38.25 32.0625 39 32.0625 39.9375C32.0625 40.875 31.3125 41.625 30.375 41.625C29.4375 41.625 28.6875 40.875 28.6875 39.9375C28.75 39 29.5 38.25 30.375 38.25Z" fill="#D4EEF1"/>
<path fill-rule="evenodd" clip-rule="evenodd" d="M30.375 38.6875C30.5 38.6875 30.6875 38.6875 30.8125 38.75C30.6875 38.8125 30.5625 39 30.5625 39.1875C30.5625 39.4375 30.8125 39.6875 31.0625 39.6875C31.25 39.6875 31.4375 39.5625 31.5 39.4375C31.5625 39.5625 31.5625 39.75 31.5625 39.875C31.5625 40.5625 31 41.0625 30.375 41.0625C29.6875 41.0625 29.1875 40.5 29.1875 39.875C29.1875 39.25 29.75 38.6875 30.375 38.6875ZM0.625 34.75H78.9375C77.25 34.3125 73.5625 33.75 74.125 31.5C71 35.0625 63.5625 34 61.625 32.25C59.5 35.3125 47.25 34.125 46.4375 31.75C43.8125 34.875 35.625 34.875 33 31.75C32.125 34.125 19.875 35.3125 17.8125 32.25C15.9375 34 8.4375 35.0625 5.3125 31.5C6 33.6875 2.3125 34.3125 0.625 34.75Z" fill="#3A4D54"/>
<path d="M34.875 50.375C30.6875 48.375 28.4375 45.6875 27.125 42.75C25.5625 43.1875 23.6875 43.5 21.5625 43.625C20.75 43.6875 19.875 43.6875 19 43.6875C17.9375 43.6875 16.875 43.6875 15.75 43.625C19.5625 47.4375 24.3125 50.375 33 50.4375C33.625 50.375 34.25 50.375 34.875 50.375Z" fill="#BFDBE0"/>
<path d="M28.6875 45.4375C28.125 44.625 27.5625 43.6875 27.125 42.75C25.5625 43.1875 23.6875 43.5 21.5625 43.625C23.0625 44.4375 25.1875 45.1875 28.6875 45.4375Z" fill="#D4EEF1"/>
</svg>
