<svg width="80" height="80" viewBox="0 0 80 80" fill="none" xmlns="http://www.w3.org/2000/svg">
<path d="M25.3313 48.6375V31.7125H26.25V34.375C26.3586 34.257 26.4588 34.1317 26.55 34C26.9255 33.2206 27.5153 32.5645 28.2503 32.1084C28.9853 31.6524 29.8351 31.4153 30.7 31.4249C32.7938 31.3624 34.4938 32.1375 35.4938 34C36.1301 35.157 36.4802 36.4494 36.515 37.7694C36.5498 39.0894 36.2682 40.3985 35.6938 41.5875C34.7625 43.675 32.4625 44.7125 30 44.3312C29.2337 44.2659 28.496 44.0098 27.854 43.5862C27.2121 43.1626 26.6865 42.5851 26.325 41.9062V48.6375H25.3313ZM26.25 37.6999C26.3313 38.525 26.3625 39.1125 26.4563 39.6875C26.8188 41.95 28.1563 43.2937 30.2563 43.5375C31.2423 43.6995 32.2541 43.5147 33.1191 43.0143C33.9841 42.514 34.6489 41.7292 35 40.7937C35.4036 39.8314 35.5978 38.7943 35.5698 37.7512C35.5418 36.7081 35.2922 35.6829 34.8375 34.7437C34.4627 33.9052 33.8251 33.2114 33.0212 32.7672C32.2173 32.323 31.2907 32.1524 30.3813 32.2812C29.5275 32.3431 28.7141 32.6694 28.0544 33.2149C27.3946 33.7604 26.9212 34.498 26.7 35.325C26.5043 36.1073 26.354 36.9003 26.25 37.6999ZM55.2563 40C55.1171 41.1916 54.5498 42.2921 53.66 43.0969C52.7702 43.9016 51.6184 44.3558 50.4188 44.375C46.5688 44.5687 44.7626 42.0125 44.475 39.0624C44.2755 37.4604 44.5356 35.8347 45.225 34.375C45.7052 33.3736 46.4915 32.5511 47.4701 32.0264C48.4488 31.5016 49.5691 31.3019 50.6688 31.4562C51.7143 31.5448 52.7054 31.9601 53.5018 32.6432C54.2982 33.3263 54.8595 34.2426 55.1063 35.2624C55.3019 36.1913 55.4459 37.1302 55.5375 38.0749H45.4188C45.2313 40.7499 46.6688 42.9 48.7063 43.4187C51.2438 44.0437 53.4125 42.9437 54.2 40.5312C54.375 39.9124 54.6938 39.825 55.2563 40ZM45.4188 37.2187H54.4625C54.4063 34.3687 52.6313 32.3062 50.225 32.2749C47.5 32.2312 45.5375 34.2187 45.4188 37.2187ZM57.1188 40.0624H58.0063C58.0391 40.7155 58.2513 41.3469 58.6195 41.8871C58.9878 42.4274 59.4979 42.8557 60.0938 43.125C60.842 43.4617 61.6566 43.6253 62.4768 43.6037C63.2971 43.582 64.1018 43.3757 64.8313 43C65.2288 42.8207 65.5618 42.5239 65.7853 42.1495C66.0089 41.7751 66.1122 41.3412 66.0813 40.9062C66.1042 40.4867 65.9896 40.0712 65.755 39.7227C65.5204 39.3742 65.1786 39.1116 64.7813 38.975C63.8063 38.6125 62.7688 38.4125 61.775 38.0937C60.7411 37.7993 59.73 37.4295 58.75 36.9875C57.15 36.2062 57.05 33.1625 58.8625 32.2C59.7906 31.6762 60.8351 31.3933 61.9006 31.3769C62.9661 31.3605 64.0188 31.6112 64.9625 32.1062C65.5342 32.4222 65.996 32.9049 66.2864 33.49C66.5767 34.0751 66.6818 34.7348 66.5875 35.3812H65.825C65.825 35.3437 65.7563 35.3124 65.7563 35.2749C65.6625 32.8437 63.625 32.0937 61.4375 32.3062C60.7845 32.3867 60.1503 32.5791 59.5625 32.8749C59.2095 33.0364 58.9152 33.3035 58.7204 33.6394C58.5256 33.9752 58.4399 34.3633 58.475 34.7499C58.4761 35.1368 58.5968 35.5138 58.8206 35.8294C59.0444 36.1449 59.3603 36.3835 59.725 36.5124C60.6875 36.8624 61.6938 37.0874 62.6813 37.3624C63.475 37.5812 64.3 37.7249 65.0688 37.9874C65.6114 38.1653 66.0872 38.5038 66.4331 38.958C66.7791 39.4122 66.979 39.9609 67.0063 40.5312C67.0991 41.1561 66.9926 41.7944 66.702 42.3553C66.4114 42.9163 65.9515 43.3715 65.3875 43.6562C63.3 44.8375 59.8625 44.525 58.3313 43.0312C57.9432 42.6409 57.6363 42.1776 57.4282 41.6681C57.2201 41.1585 57.1149 40.6128 57.1188 40.0624ZM78.2563 35.3812H77.425C77.425 35.2687 77.3813 35.1687 77.3688 35.0749C77.3553 34.4519 77.1282 33.8523 76.7254 33.3767C76.3226 32.9011 75.7687 32.5784 75.1563 32.4624C74.0009 32.1309 72.7683 32.1903 71.65 32.6312C71.208 32.7579 70.8189 33.0242 70.5407 33.3903C70.2624 33.7564 70.1101 34.2027 70.1063 34.6624C70.0908 35.114 70.2315 35.5571 70.5048 35.9169C70.7781 36.2767 71.1671 36.5312 71.6063 36.6374C72.8563 37.0249 74.1375 37.2625 75.4063 37.6125C75.8174 37.7111 76.2223 37.8343 76.6188 37.9812C77.2108 38.193 77.7252 38.5785 78.0947 39.0873C78.4641 39.596 78.6715 40.2044 78.6898 40.833C78.708 41.4615 78.5362 42.0809 78.1968 42.6102C77.8575 43.1395 77.3663 43.5542 76.7875 43.8C75.9055 44.2005 74.9496 44.4123 73.981 44.422C73.0124 44.4317 72.0524 44.239 71.1625 43.8562C70.4308 43.5406 69.8133 43.0084 69.3931 42.3313C68.973 41.6541 68.7704 40.8645 68.8125 40.0687H69.625C69.7754 40.7939 70.1002 41.4715 70.5714 42.0429C71.0426 42.6142 71.6459 43.0621 72.3292 43.3477C73.0125 43.6334 73.7551 43.7481 74.4928 43.6821C75.2304 43.616 75.9409 43.3712 76.5625 42.9687C76.9413 42.7719 77.2556 42.4707 77.4683 42.1007C77.681 41.7307 77.7831 41.3075 77.7625 40.8812C77.7814 40.4615 77.6628 40.047 77.4248 39.7008C77.1868 39.3545 76.8424 39.0953 76.4438 38.9625C75.4688 38.6 74.4313 38.4062 73.4375 38.0874C72.3977 37.7975 71.3804 37.432 70.3938 36.9937C68.8313 36.2249 68.7063 33.2062 70.4875 32.2437C71.4271 31.698 72.492 31.4049 73.5785 31.3929C74.665 31.3808 75.7361 31.6503 76.6875 32.175C77.2317 32.4998 77.6697 32.9758 77.9482 33.545C78.2267 34.1143 78.3338 34.7522 78.2563 35.3812ZM23.8125 44.0687C23.4853 44.1926 23.124 44.1924 22.797 44.068C22.4699 43.9436 22.1998 43.7037 22.0375 43.3937C21.0188 41.8687 19.8938 40.4124 18.8125 38.9249L18.3438 38.2999C17.0563 40.0249 15.7688 41.6812 14.5938 43.4C14.4407 43.6963 14.1851 43.9268 13.8747 44.0487C13.5642 44.1706 13.2201 44.1755 12.9063 44.0625L17.7375 37.5812L13.2438 31.7249C13.5673 31.6081 13.9211 31.6065 14.2457 31.7204C14.5702 31.8343 14.8455 32.0566 15.025 32.3499C16.0688 33.8749 17.225 35.3312 18.375 36.8749C19.5313 35.3437 20.675 33.8812 21.7438 32.3687C21.8977 32.0772 22.1534 31.8525 22.4623 31.7372C22.7711 31.622 23.1115 31.6243 23.4188 31.7437L21.675 34.0562C20.8938 35.0875 20.125 36.1249 19.3125 37.1312C19.2471 37.1898 19.1947 37.2616 19.1589 37.3418C19.123 37.4221 19.1045 37.5089 19.1045 37.5968C19.1045 37.6847 19.123 37.7716 19.1589 37.8518C19.1947 37.9321 19.2471 38.0038 19.3125 38.0625C20.8063 40.0437 22.2875 42.0312 23.8125 44.0687ZM44.325 31.6625V32.5375C43.6929 32.496 43.0591 32.5875 42.4646 32.8062C41.87 33.0248 41.3279 33.3657 40.8732 33.8068C40.4185 34.2479 40.0614 34.7795 39.8249 35.3672C39.5884 35.9549 39.4777 36.5856 39.5 37.2187V44.0937H38.6063V31.7125H39.4813V34.2499C40.5625 32.3999 42.2313 31.7125 44.325 31.6625ZM1.3313 37.4999C1.46255 36.8749 1.5438 36.1937 1.72505 35.5562C2.8063 31.7124 7.21255 30.1125 10.2438 32.4937C12.0188 33.8875 12.4625 35.8624 12.375 38.0874H2.37505C2.21255 42.0624 5.0813 44.4625 8.75005 43.2375C9.34517 43.0246 9.87792 42.6668 10.3002 42.1966C10.7225 41.7263 11.021 41.1582 11.1688 40.5437C11.3625 39.9187 11.675 39.8125 12.2688 39.9937C12.171 40.7546 11.902 41.4834 11.4819 42.1253C11.0619 42.7673 10.5018 43.3056 9.8438 43.6999C8.75655 44.2945 7.50914 44.53 6.27995 44.3729C5.05076 44.2157 3.90274 43.6739 3.00005 42.8249C2.10702 41.8209 1.56705 40.5521 1.46255 39.2125C1.46255 39 1.3813 38.7875 1.33755 38.5875C1.33338 38.2166 1.3313 37.8541 1.3313 37.4999ZM2.38755 37.2312H11.4313C11.375 34.3499 9.5563 32.3062 7.1313 32.2875C4.4313 32.25 2.50005 34.2499 2.3813 37.2187L2.38755 37.2312Z" fill="black"/>
</svg>
