<svg width="80" height="80" viewBox="0 0 80 80" fill="none" xmlns="http://www.w3.org/2000/svg">
<path fill-rule="evenodd" clip-rule="evenodd" d="M40 0.944946C25.3169 0.944946 13.4094 12.8493 13.4094 27.5356C13.4094 39.2837 21.0282 49.2512 31.5938 52.7668C32.9225 53.0131 33.4107 52.1899 33.4107 51.4874C33.4107 50.8537 33.3857 48.7587 33.3744 46.5374C25.9763 48.1456 24.4157 43.3999 24.4157 43.3999C23.2063 40.3262 21.4632 39.5087 21.4632 39.5087C19.0507 37.8587 21.6444 37.8924 21.6444 37.8924C24.315 38.0799 25.7213 40.6331 25.7213 40.6331C28.0925 44.6981 31.9419 43.5224 33.4588 42.8431C33.6982 41.1243 34.3869 39.9506 35.1475 39.2868C29.2413 38.6149 23.0325 36.3343 23.0325 26.1456C23.0325 23.2424 24.0713 20.8706 25.7725 19.0081C25.4963 18.3381 24.5863 15.6331 26.03 11.9706C26.03 11.9706 28.2625 11.2568 33.3425 14.6974C35.4644 14.1081 37.7394 13.8124 39.9988 13.8024C42.2588 13.8131 44.535 14.1087 46.66 14.6974C51.735 11.2574 53.965 11.9712 53.965 11.9712C55.4125 15.6337 54.5025 18.3381 54.2263 19.0087C55.9313 20.8699 56.9625 23.2424 56.9625 26.1462C56.9625 36.3587 50.7419 38.6074 44.8207 39.2649C45.7744 40.0899 46.6244 41.7087 46.6244 44.1899C46.6244 47.7474 46.5944 50.6106 46.5944 51.4862C46.5944 52.1924 47.0732 53.0224 48.4207 52.7612C58.9807 49.2412 66.5894 39.2774 66.5894 27.5331C66.5907 12.8499 54.6857 0.944946 40 0.944946Z" fill="#181616"/>
<path d="M23.4813 39.1225C23.422 39.255 23.2138 39.2943 23.0251 39.2037C22.8313 39.1162 22.7238 38.9368 22.7863 38.8037C22.8426 38.6687 23.0513 38.6306 23.2445 38.7212C23.4382 38.8087 23.5482 38.99 23.482 39.1225H23.4813ZM24.5582 40.325C24.4313 40.4418 24.1832 40.3875 24.0145 40.2012C23.8407 40.0156 23.8082 39.7675 23.937 39.6487C24.067 39.5312 24.3076 39.5862 24.4807 39.7718C24.6557 39.9593 24.6901 40.205 24.5576 40.3243L24.5582 40.325ZM25.6063 41.855C25.4438 41.9687 25.177 41.8625 25.0126 41.6256C24.8488 41.39 24.8488 41.1068 25.0157 40.9925C25.1807 40.8787 25.4432 40.9812 25.6095 41.2156C25.7732 41.4562 25.7732 41.7406 25.6063 41.8556V41.855ZM27.0426 43.335C26.897 43.4956 26.5863 43.4525 26.3595 43.2331C26.127 43.0187 26.0626 42.7143 26.2082 42.5537C26.3563 42.3931 26.6682 42.4381 26.897 42.6556C27.1282 42.8693 27.1982 43.1743 27.0426 43.3343V43.335ZM29.0251 44.1937C28.9601 44.4025 28.6613 44.4968 28.3601 44.4087C28.0588 44.3175 27.8626 44.0737 27.9226 43.8637C27.9851 43.6537 28.2863 43.5556 28.5895 43.65C28.8895 43.74 29.0863 43.9812 29.0245 44.1937H29.0251ZM31.2001 44.3531C31.2082 44.5718 30.9526 44.7543 30.6363 44.7581C30.3188 44.7656 30.0613 44.5881 30.0576 44.3718C30.0576 44.1506 30.3076 43.9706 30.6251 43.9656C30.9413 43.9593 31.2001 44.1356 31.2001 44.3531ZM33.2251 44.0087C33.2626 44.2225 33.0438 44.4425 32.7295 44.5006C32.4207 44.5581 32.1357 44.4256 32.0957 44.2131C32.0582 43.9943 32.2813 43.7756 32.5895 43.7181C32.9038 43.6631 33.1851 43.7918 33.2251 44.0093V44.0087Z" fill="#181616"/>
<path d="M15.5345 67.6887H8.84695C8.76407 67.6887 8.68459 67.7216 8.62598 67.7802C8.56738 67.8388 8.53445 67.9183 8.53445 68.0012V71.2712C8.53445 71.3541 8.56738 71.4336 8.62598 71.4922C8.68459 71.5508 8.76407 71.5837 8.84695 71.5837H11.4551V75.6462C11.4551 75.6462 10.8695 75.8462 9.24883 75.8462C7.33883 75.8462 4.66945 75.1487 4.66945 69.2787C4.66945 63.4081 7.44945 62.635 10.0595 62.635C12.3182 62.635 13.2907 63.0324 13.9107 63.2243C14.1045 63.2831 14.2857 63.0893 14.2857 62.9168L15.0313 59.7574C15.0325 59.7101 15.0222 59.6633 15.0013 59.6208C14.9804 59.5783 14.9496 59.5416 14.9113 59.5137C14.6595 59.3337 13.1257 58.4762 9.25008 58.4762C4.78508 58.4762 0.205078 60.3749 0.205078 69.5074C0.205078 78.6387 5.44883 79.9993 9.86758 79.9993C13.5263 79.9993 15.7457 78.4356 15.7457 78.4356C15.837 78.3856 15.847 78.2574 15.847 78.1981V68.0006C15.847 67.9177 15.814 67.8382 15.7554 67.7796C15.6968 67.721 15.6173 67.6881 15.5345 67.6881V67.6887ZM49.6913 59.2562H45.9251C45.884 59.2564 45.8433 59.2646 45.8054 59.2805C45.7675 59.2964 45.7332 59.3196 45.7043 59.3488C45.6753 59.378 45.6525 59.4126 45.637 59.4507C45.6214 59.4887 45.6136 59.5295 45.6138 59.5706L45.6151 66.8481H39.7451V59.5706C39.7453 59.5295 39.7375 59.4889 39.722 59.4508C39.7065 59.4128 39.6837 59.3782 39.6549 59.3491C39.626 59.3199 39.5917 59.2966 39.5539 59.2807C39.5161 59.2648 39.4755 59.2564 39.4345 59.2562H35.6688C35.6277 59.2564 35.5871 59.2646 35.5492 59.2805C35.5113 59.2964 35.4769 59.3196 35.448 59.3488C35.4191 59.378 35.3962 59.4126 35.3807 59.4507C35.3652 59.4887 35.3573 59.5295 35.3576 59.5706V79.2768C35.3576 79.4499 35.4976 79.5912 35.6688 79.5912H39.4345C39.4755 79.591 39.5162 79.5826 39.554 79.5666C39.5919 79.5507 39.6262 79.5274 39.6551 79.4981C39.684 79.4689 39.7067 79.4342 39.7222 79.3961C39.7376 79.358 39.7454 79.3173 39.7451 79.2762V70.8475H45.6151L45.6051 79.2762C45.6051 79.45 45.7451 79.5912 45.9176 79.5912H49.6913C49.7324 79.591 49.7731 79.5826 49.8109 79.5666C49.8488 79.5507 49.8831 79.5274 49.912 79.4981C49.9408 79.4689 49.9636 79.4342 49.9791 79.3961C49.9945 79.358 50.0023 79.3173 50.0019 79.2762V59.5699C50.0024 59.5289 49.9946 59.4882 49.9792 59.4501C49.9638 59.4121 49.941 59.3775 49.9121 59.3483C49.8832 59.3191 49.8488 59.2959 49.8109 59.2801C49.773 59.2643 49.7324 59.2562 49.6913 59.2562ZM20.2126 59.7043C18.8726 59.7043 17.7851 60.7999 17.7851 62.1562C17.7851 63.5106 18.8726 64.6093 20.2126 64.6093C21.5538 64.6093 22.6407 63.5106 22.6407 62.1562C22.6407 60.7999 21.5532 59.7043 20.2126 59.7043ZM22.0601 65.7093H18.3063C18.1338 65.7093 17.9801 65.8868 17.9801 66.0593V79.0918C17.9801 79.4749 18.2188 79.5887 18.5276 79.5887H21.9088C22.2807 79.5887 22.3713 79.4062 22.3713 79.0856V66.0237C22.3715 65.9827 22.3636 65.942 22.348 65.904C22.3325 65.866 22.3096 65.8315 22.2807 65.8024C22.2518 65.7732 22.2174 65.7501 22.1796 65.7342C22.1417 65.7184 22.1011 65.7101 22.0601 65.7099V65.7093ZM64.3138 65.7387H60.5763C60.5353 65.739 60.4947 65.7474 60.4569 65.7634C60.4191 65.7794 60.3849 65.8027 60.3561 65.832C60.3273 65.8612 60.3046 65.8959 60.2892 65.9339C60.2738 65.972 60.266 66.0127 60.2663 66.0537V75.7162C60.2663 75.7162 59.3163 76.4099 57.9695 76.4099C56.6226 76.4099 56.2651 75.7993 56.2651 74.4799V66.0537C56.2654 66.0126 56.2576 65.9719 56.2422 65.9338C56.2267 65.8957 56.204 65.861 56.1751 65.8318C56.1462 65.8025 56.1119 65.7792 56.074 65.7633C56.0362 65.7473 55.9955 65.7389 55.9545 65.7387H52.1619C52.079 65.7394 51.9996 65.7729 51.9413 65.8319C51.8829 65.891 51.8504 65.9707 51.8507 66.0537V75.1175C51.8507 79.0362 54.0351 79.9949 57.0395 79.9949C59.5045 79.9949 61.492 78.6324 61.492 78.6324C61.492 78.6324 61.5857 79.3512 61.6295 79.4356C61.6732 79.5206 61.7838 79.6062 61.9044 79.6062L64.3169 79.5956C64.3582 79.5954 64.3989 79.5871 64.4369 79.5712C64.4749 79.5553 64.5094 79.532 64.5384 79.5028C64.5675 79.4735 64.5904 79.4389 64.606 79.4007C64.6217 79.3626 64.6296 79.3218 64.6294 79.2806L64.6276 66.0518C64.6273 65.9689 64.5943 65.8895 64.5358 65.8308C64.4773 65.772 64.398 65.7387 64.3151 65.7381L64.3138 65.7387ZM74.5276 65.2962C72.4051 65.2962 70.9613 66.2431 70.9613 66.2431V59.5699C70.9616 59.5289 70.9537 59.4882 70.9383 59.4502C70.9228 59.4122 70.9 59.3776 70.8711 59.3484C70.8423 59.3192 70.808 59.296 70.7701 59.2801C70.7323 59.2641 70.6917 59.2558 70.6507 59.2556H66.8751C66.8339 59.2556 66.7931 59.2637 66.7551 59.2795C66.717 59.2954 66.6825 59.3185 66.6534 59.3478C66.6244 59.377 66.6014 59.4117 66.5858 59.4498C66.5702 59.4879 66.5623 59.5288 66.5626 59.5699V79.2762C66.5623 79.3174 66.5702 79.3582 66.5858 79.3964C66.6014 79.4345 66.6244 79.4692 66.6534 79.4984C66.6825 79.5276 66.717 79.5508 66.7551 79.5666C66.7931 79.5824 66.8339 79.5906 66.8751 79.5906H69.4951C69.6138 79.5906 69.7026 79.53 69.7682 79.4231C69.8326 79.3168 69.927 78.5143 69.927 78.5143C69.927 78.5143 71.4707 79.9768 74.3944 79.9768C77.8257 79.9768 79.7944 78.2368 79.7944 72.1631C79.7944 66.0893 76.6507 65.2956 74.5269 65.2956L74.5276 65.2962ZM73.0526 76.3987C71.757 76.3593 70.8776 75.7712 70.8776 75.7712V69.5306C70.8776 69.5306 71.7451 68.9993 72.8088 68.9031C74.1545 68.7825 75.4513 69.1893 75.4513 72.3993C75.4513 75.7849 74.867 76.4531 73.0532 76.3981L73.0526 76.3987ZM33.247 76.325C33.0826 76.325 32.6613 76.3918 32.2282 76.3918C30.8407 76.3918 30.3701 75.7468 30.3701 74.9118V69.3706H33.1951C33.2363 69.3706 33.2772 69.3624 33.3152 69.3465C33.3533 69.3307 33.3879 69.3074 33.4169 69.2782C33.446 69.2489 33.469 69.2141 33.4845 69.1759C33.5001 69.1377 33.5079 69.0968 33.5076 69.0556V66.0206C33.5077 65.9794 33.4998 65.9387 33.4841 65.9006C33.4685 65.8625 33.4455 65.8279 33.4165 65.7988C33.3875 65.7696 33.353 65.7465 33.315 65.7307C33.277 65.7149 33.2362 65.7068 33.1951 65.7068H30.3701L30.3657 61.9756C30.3657 61.8337 30.2932 61.7631 30.1295 61.7631H26.2795C26.1307 61.7631 26.0501 61.8293 26.0501 61.9724V65.8287C26.0501 65.8287 24.1207 66.2943 23.9907 66.3318C23.9258 66.3508 23.8688 66.3902 23.8282 66.4443C23.7876 66.4984 23.7657 66.5642 23.7657 66.6318V69.0549C23.7655 69.096 23.7733 69.1367 23.7888 69.1747C23.8042 69.2127 23.8271 69.2473 23.8559 69.2765C23.8848 69.3057 23.9191 69.3289 23.9569 69.3448C23.9947 69.3608 24.0353 69.3691 24.0763 69.3693H26.0501V75.1993C26.0501 79.5306 29.0876 79.9556 31.1376 79.9556C32.0732 79.9556 33.1938 79.6556 33.3788 79.5868C33.4913 79.5449 33.5557 79.4293 33.5557 79.3037L33.5582 76.6381C33.5569 76.5555 33.5236 76.4766 33.4653 76.4181C33.407 76.3595 33.3283 76.3259 33.2457 76.3243L33.247 76.325Z" fill="#100E0F"/>
</svg>
