<svg width="80" height="80" viewBox="0 0 80 80" fill="none" xmlns="http://www.w3.org/2000/svg">
<path d="M77.5807 39.3876C77.5807 34.5801 73.9382 30.5344 69.0482 29.3801L80.0001 0.0706787H25.7251L36.702 29.4726C31.9657 30.7201 28.4745 34.6951 28.4745 39.4119C28.4745 42.8782 30.3857 45.9519 33.2889 47.8469C32.1439 49.3263 30.8182 50.6907 29.3164 51.9844C26.4895 54.3894 23.3545 56.2376 19.9682 57.4632C16.912 55.5907 15.5882 52.2851 16.7845 49.3257C21.4451 48.0319 24.8345 44.0794 24.8345 39.4338C24.8345 33.7257 19.7145 29.1013 13.447 29.1013C7.15574 29.1013 2.03887 33.7476 2.03887 39.4576C2.03887 42.2782 3.31075 44.8657 5.34949 46.7138C5.17075 47.0388 4.99325 47.3607 4.8145 47.7076C3.10824 50.8988 1.17199 54.5044 0.431995 58.5501C-1.04488 66.6382 1.3745 73.1351 7.207 76.8094C10.4932 78.8676 14.1114 79.9076 18.0082 79.9076C24.7045 79.9076 31.5064 76.8557 38.0764 73.8963C42.7639 71.7944 47.6026 69.5969 52.3657 68.535C54.1239 68.1419 55.957 67.9101 57.8932 67.6563C61.8139 67.1482 65.8645 66.6163 69.507 64.6976C73.7601 62.4563 76.6632 58.7107 77.5051 54.4119C78.1395 51.1057 77.5051 47.7782 75.8739 44.8657C76.9881 43.2565 77.5835 41.3449 77.5801 39.3876H77.5807ZM72.6151 39.3876C72.6151 42.6001 69.7364 45.2126 66.1964 45.2126C62.6564 45.2126 59.7776 42.6001 59.7776 39.3876C59.7776 38.3469 60.0832 37.3538 60.6176 36.4988C60.8207 36.1738 61.077 35.8519 61.3301 35.5738C61.5984 35.2878 61.8975 35.0323 62.222 34.8119L62.2489 34.7876C62.4514 34.6488 62.6807 34.5094 62.9101 34.3726C62.9101 34.3726 62.9351 34.3726 62.9351 34.3482C63.037 34.3019 63.1395 34.2332 63.2426 34.1869C63.267 34.1869 63.2914 34.1626 63.3176 34.1626C63.4207 34.1188 63.5476 34.0726 63.6739 34.0257C63.7944 33.9836 63.9134 33.9373 64.0307 33.8869C64.0557 33.8869 64.082 33.8619 64.1064 33.8619C64.2089 33.8407 64.3114 33.7938 64.412 33.7719C64.4389 33.7719 64.4901 33.7476 64.5145 33.7476C64.6414 33.7257 64.7439 33.7013 64.8707 33.6788H64.8976L65.2789 33.6082C65.3051 33.6082 65.3539 33.6082 65.3807 33.5863C65.4832 33.5863 65.5839 33.5619 65.6864 33.5619H65.8132C65.9401 33.5619 66.0695 33.5401 66.2207 33.5401H66.5526C66.6526 33.5401 66.7314 33.5401 66.8314 33.5619H66.8826C67.0876 33.5869 67.2901 33.6082 67.4951 33.6551C70.3982 34.2088 72.6151 36.5676 72.6151 39.3876ZM32.8295 4.69255H72.8932L63.6989 29.3094C63.3176 29.3801 62.9345 29.4944 62.5539 29.6094L52.8764 11.6969L43.1714 29.4938C42.7882 29.3794 42.3807 29.3088 41.9751 29.2401L32.8295 4.69255ZM51.0401 37.3751C50.557 35.2019 49.3339 33.2613 47.6026 31.8282L52.8764 22.1676L58.1982 32.0357C56.6189 33.4688 55.4732 35.2951 55.0145 37.3751H51.0401ZM38.2814 33.7251C38.4082 33.7001 38.5107 33.6788 38.6376 33.6544H38.7132C38.8157 33.6326 38.9189 33.6326 39.0189 33.6076H39.1214C39.2239 33.6076 39.2995 33.5857 39.402 33.5857H40.3957C40.4957 33.5857 40.5739 33.6076 40.6495 33.6076C40.7007 33.6076 40.7251 33.6076 40.7764 33.6326C40.8789 33.6544 40.9545 33.6544 41.0576 33.6788C41.0814 33.6788 41.1082 33.6788 41.1595 33.7007C41.287 33.7251 41.4139 33.7469 41.5157 33.7713H41.5407C41.6432 33.7932 41.7457 33.8151 41.8457 33.8619C41.8726 33.8619 41.897 33.8863 41.9482 33.8863C42.0239 33.9082 42.1264 33.9326 42.202 33.9788C42.2289 33.9788 42.2532 34.0007 42.2801 34.0007C42.3801 34.0476 42.4832 34.0719 42.5857 34.1182H42.6101C42.737 34.1619 42.8395 34.2082 42.942 34.2794H42.967C43.0689 34.3257 43.1714 34.3938 43.2739 34.4401C43.2989 34.4401 43.2989 34.4651 43.3226 34.4651C43.4251 34.5088 43.5014 34.5794 43.6039 34.6257L43.6307 34.6476C43.9357 34.8557 44.2164 35.0876 44.4945 35.3194L44.5214 35.3413C44.7757 35.5951 45.0295 35.8732 45.2345 36.1738C45.8964 37.0988 46.2795 38.1857 46.2795 39.3644C46.2795 42.5776 43.4007 45.1876 39.8607 45.1876C36.3207 45.1876 33.442 42.5776 33.442 39.3644C33.4157 36.6594 35.4789 34.3719 38.2814 33.7251ZM13.2176 33.5613C16.7582 33.5613 19.6364 36.1738 19.6364 39.3863C19.6364 42.5994 16.7582 45.2113 13.2176 45.2113C9.67762 45.2113 6.79887 42.5994 6.79887 39.3863C6.79887 36.1738 9.67762 33.5613 13.2176 33.5613ZM72.4614 53.6032C71.902 56.5594 69.8876 59.1501 66.9339 60.6976C64.1576 62.1551 60.7445 62.6163 57.1532 63.0782C55.1932 63.3319 53.1301 63.6101 51.1426 64.0494C45.8451 65.2288 40.752 67.5407 35.8107 69.7576C29.4945 72.6019 23.5326 75.2826 18.0082 75.2826C15.1295 75.2826 12.5564 74.5432 10.1126 72.9951C4.5095 69.4819 4.78762 62.8951 5.45199 59.2888C6.062 55.9126 7.76887 52.7463 9.3995 49.7188C9.49949 49.5332 9.57762 49.3719 9.67762 49.1863C10.2395 49.3719 10.8251 49.5113 11.4357 49.6038C10.4689 54.5038 13.2176 59.5651 18.567 62.0626L19.5357 62.5238L20.5789 62.1769C25.037 60.7438 29.1626 58.4101 32.8051 55.2894C34.8682 53.5319 36.6264 51.6376 38.1032 49.5794C38.6889 49.6726 39.2751 49.6969 39.8607 49.6969C45.1589 49.6969 49.6145 46.3907 50.8889 41.9526H55.1664C56.4407 46.4132 60.8982 49.6963 66.1964 49.6963C68.3107 49.6963 70.2714 49.1651 71.9507 48.2638C72.6151 49.9969 72.8176 51.7988 72.4614 53.6032Z" fill="#99425B"/>
</svg>
