<svg width="80" height="80" viewBox="0 0 80 80" fill="none" xmlns="http://www.w3.org/2000/svg">
<path d="M16.0625 27.5V27.75C16.0625 28.375 15.875 28.4375 15.75 28.8125C15.5625 29.25 15.625 29.8125 15.875 30.1875C15.875 30.25 15.9375 30.3125 15.9375 30.3125C15.6875 28.5625 17.125 28.25 17.4375 27.75C17.4375 27.25 17.0625 26.9375 16.75 26.75C16.4375 26.5625 16.1875 26.5 15.9375 26.5C15.75 26.5 15.5625 26.5625 15.375 26.625C15.75 26.875 15.9375 27.1875 16.0625 27.5Z" fill="#DF234F"/>
<path d="M23.25 31.875V32.125C23.25 32.3125 23.1875 32.4375 23.1875 32.5625C23.125 32.6875 23.125 32.875 23.0625 33C23 33.125 22.9375 33.3125 22.875 33.4375C22.8125 33.5625 22.75 33.75 22.6875 33.875C22.625 34 22.5 34.125 22.4375 34.25C22.375 34.375 22.25 34.5 22.125 34.625C22 34.75 21.9375 34.875 21.8125 35L21.625 35.1875C21.5625 35.25 21.5 35.25 21.4375 35.3125C21.3125 35.4375 21.1875 35.5 21.0625 35.5625C20.9375 35.625 20.8125 35.75 20.625 35.8125C20.5 35.875 20.3125 35.9375 20.1875 36C20.0625 36.0625 19.875 36.125 19.75 36.125C19.625 36.1875 19.4375 36.1875 19.3125 36.25C19.125 36.25 19 36.3125 18.8125 36.3125H18C17.8125 36.3125 17.6875 36.25 17.5 36.25C17.3125 36.25 17.1875 36.1875 17.0625 36.125C17.1875 36.125 17.375 36.125 17.5 36.0625C17.6875 36.0625 17.8125 36 17.9375 35.9375C18.0625 35.875 18.25 35.875 18.375 35.8125C18.5 35.75 18.6875 35.6875 18.8125 35.625C18.9375 35.5625 19.0625 35.5 19.25 35.375C19.375 35.3125 19.5 35.1875 19.625 35.125C19.75 35 19.875 34.9375 20 34.8125L20.3125 34.5C20.4375 34.375 20.5 34.25 20.625 34.125C20.625 34.125 20.625 34.0625 20.6875 34.0625C20.75 33.9375 20.8125 33.8125 20.875 33.75C20.9375 33.625 21 33.5 21.0625 33.3125C21.125 33.1875 21.1875 33 21.25 32.875C21.3125 32.75 21.3125 32.5625 21.375 32.4375C21.375 32.25 21.4375 32.125 21.4375 32V31.5V31.1875C21.4375 31 21.375 30.875 21.375 30.75C21.375 30.5625 21.3125 30.4375 21.25 30.3125C21.1875 30.1875 21.125 30 21.125 29.875C21.0625 29.75 21 29.5625 20.9375 29.4375C20.875 29.3125 20.8125 29.1875 20.6875 29C20.625 28.875 20.5 28.75 20.4375 28.625C20.3125 28.5 20.25 28.375 20.125 28.25L19.9375 28.0625C19.625 27.8125 19.3125 27.5625 18.9375 27.375C18.875 27.375 18.875 27.3125 18.8125 27.3125C18.5625 27.1875 18.375 27.0625 18.125 27V27.375C18.125 27.4375 18.125 27.5 18.0625 27.5625C18.0625 27.625 18 27.6875 18 27.75C18 27.8125 17.9375 27.875 17.9375 27.9375L17.875 28C17.875 28 17.875 28.0625 17.8125 28.0625C17.75 28.125 17.75 28.1875 17.6875 28.1875L17.5625 28.3125L17.4375 28.4375C17.3125 28.5625 17.125 28.625 17 28.75C16.9375 28.8125 16.875 28.8125 16.875 28.875L16.75 29L16.625 29.125L16.5 29.25C16.4375 29.3125 16.4375 29.375 16.375 29.375C16.375 29.4375 16.3125 29.5 16.3125 29.5625C16.3125 29.625 16.25 29.6875 16.25 29.75C16.25 29.8125 16.1875 29.875 16.1875 29.9375V30.5625C16.1875 30.625 16.1875 30.6875 16.25 30.75C16.25 30.8125 16.3125 30.875 16.3125 30.9375C16.3125 31 16.375 31 16.375 31.0625L14.75 30.4375C14.5 30.375 14.1875 30.3125 13.9375 30.25C13.8125 30.1875 13.625 30.1875 13.5 30.125C13.0625 30.0625 12.625 30 12.25 29.9375H12.1875C11.75 29.875 11.375 29.875 10.9375 29.875C10.625 29.875 10.3125 29.875 10 29.9375C9.5625 29.9375 9.125 30 8.75 30.0625C8.625 30.0625 8.5625 30.125 8.4375 30.125C8.25 30.1875 8 30.1875 7.8125 30.25C7.6875 30.25 7.625 30.3125 7.5 30.3125C7.375 30.375 7.3125 30.375 7.1875 30.4375C7.125 30.5 7.0625 30.5 6.9375 30.5625H6.875C6.8125 30.625 6.75 30.625 6.6875 30.6875H6.625C6.5625 30.75 6.5 30.75 6.4375 30.8125C6.375 30.8125 6.3125 30.875 6.3125 30.875C6.3125 30.875 6.25 30.875 6.25 30.9375C6.1875 31 6.125 31 6.0625 31.0625C6 31.125 5.9375 31.125 5.875 31.1875C5.8125 31.25 5.75 31.25 5.75 31.3125C5.6875 31.3125 5.6875 31.375 5.625 31.4375C5.5625 31.4375 5.5625 31.5 5.5 31.5H5.4375C5.375 31.5 5.375 31.5625 5.3125 31.5625L5.1875 31.6875L5.0625 31.8125C5 31.6875 5 31.6875 4.9375 31.75C4.9375 31.75 4.875 31.75 4.875 31.8125L4.75 31.9375V32L4.5625 32.1875C4.4375 32.3125 4.3125 32.4375 4.1875 32.5C4.0625 32.625 3.9375 32.6875 3.8125 32.8125C3.6875 32.9375 3.5625 33 3.375 33.0625C3.25 33.125 3.125 33.1875 2.9375 33.25C2.8125 33.3125 2.625 33.375 2.5 33.4375C2.1875 33.5 1.875 33.625 1.625 33.625H1.4375C1.375 33.625 1.3125 33.625 1.25 33.6875C1.25 33.75 1.1875 33.75 1.125 33.75C1.0625 33.75 1 33.8125 0.9375 33.8125C0.875 33.875 0.8125 33.875 0.8125 33.9375C0.75 34 0.6875 34 0.6875 34.0625C0.625 34.125 0.5625 34.125 0.5625 34.1875L0.4375 34.3125C0.375 34.375 0.375 34.4375 0.3125 34.5C0.25 34.5625 0.25 34.625 0.1875 34.6875C0.1875 34.75 0.125 34.8125 0.125 34.875C0.125 34.9375 0.0625 35 0.0625 35.0625C0.0625 35.125 0.0625 35.1875 0 35.25V35.75C0 35.8125 0 35.8125 0.0625 35.875C0.0625 35.9375 0.125 35.9375 0.125 36C0.125 36.0625 0.1875 36.0625 0.1875 36.125L0.3125 36.25L0.4375 36.375C0.625 36.5 0.625 36.5625 0.875 36.6875C0.9375 36.6875 0.9375 36.75 1 36.75V36.8125C1 36.875 1 36.9375 1.0625 37C1.0625 37.0625 1.125 37.125 1.125 37.1875C1.125 37.25 1.1875 37.25 1.1875 37.3125V37.375C1.1875 37.4375 1.25 37.5 1.25 37.5C1.3125 37.5625 1.3125 37.625 1.375 37.625L1.5 37.75L1.625 37.875L1.75 38C1.8125 38.0625 1.875 38.0625 1.875 38.0625C1.9375 38.0625 2 38.125 2.0625 38.125H2.3125V39C2.5 39.1875 2.8125 38.75 3.125 38.25C3.0625 38.75 3.0625 39.3125 3.125 39.4375C3.1875 39.625 3.625 39.0625 4 38.4375C8.9375 37.3125 13.5 40.6875 13.9375 45.5625C13.875 44.8125 12.9375 44.375 12.5 44.5C12.3125 45 11.9375 45.6875 11.375 46.0625C11.4375 45.625 11.375 45.125 11.3125 44.6875C11.1875 45.3125 10.875 45.9375 10.4375 46.4375C9.75 46.5 9.125 46.1875 8.75 45.6875L8.6875 45.625C8.6875 45.5625 8.625 45.5 8.625 45.5C8.625 45.4375 8.5625 45.375 8.5625 45.375V45.25V45.125C8.5625 45.0625 8.5625 45 8.625 45C8.625 44.9375 8.625 44.875 8.6875 44.875C8.6875 44.8125 8.75 44.75 8.75 44.75C8.875 44.4375 8.875 44.125 8.625 44C8.5625 44 8.5625 43.9375 8.5 43.9375H8.4375H8.375C8.3125 43.9375 8.25 43.9375 8.25 43.875H7.625C7.5625 43.875 7.5 43.875 7.5 43.9375C7.4375 43.9375 7.4375 44 7.375 44C7.3125 44 7.3125 44.0625 7.25 44.0625C5.4375 45 6.4375 47.5 7.5 48.1875C7.0625 48.25 6.625 48.375 6.5625 48.4375C6.875 48.625 7.1875 48.75 7.5 48.875C7.9375 49 8.4375 49.125 8.625 49.1875C9.1875 49.3125 9.8125 49.375 10.375 49.3125C13.5 49.125 16 46.75 16.5 43.625C16.5 43.6875 16.5 43.75 16.5625 43.8125C16.5625 43.9375 16.625 44.0625 16.625 44.1875V46.125C16.625 46.1875 16.625 46.25 16.5625 46.3125C16.5625 46.375 16.5625 46.4375 16.5 46.5C16.5 46.5625 16.5 46.625 16.4375 46.6875C16.4375 46.75 16.375 46.8125 16.375 46.875C16.375 46.9375 16.3125 47 16.3125 47.0625C16.3125 47.125 16.25 47.1875 16.25 47.25C16.25 47.3125 16.1875 47.375 16.1875 47.4375C16.1875 47.5 16.125 47.5625 16.125 47.625C16.125 47.6875 16.0625 47.75 16.0625 47.8125V47.875C15.625 48.8125 14.9375 49.625 14.125 50.25C14.0625 50.3125 14 50.3125 13.9375 50.375C13.9375 50.375 13.875 50.375 13.875 50.4375C13.8125 50.5 13.75 50.5 13.75 50.5625V50.625C13.875 50.625 13.9375 50.625 14.0625 50.5625C14.25 50.5625 14.4375 50.5 14.625 50.4375C14.6875 50.4375 14.75 50.4375 14.75 50.375H15C15.0625 50.375 15.0625 50.375 15.125 50.3125C15.8125 50.125 16.5 49.9375 17.125 49.625C16 51.125 14.5 52.375 12.8125 53.1875C13.625 53.125 14.4375 53 15.1875 52.75C18 51.9375 20.375 50 21.8125 47.5C21.5 49.125 20.875 50.625 19.9375 52C20.625 51.5625 21.25 51.0625 21.8125 50.4375C23.375 48.8125 24.375 46.75 24.75 44.5C25 45.625 25.0625 46.75 24.9375 47.875C29.8125 41.125 25.1875 33.8125 23.25 31.875ZM47 44.375C47.25 37.9375 46.75 37.375 46.75 37.375C43.9375 32.8125 39.3125 37.375 39.3125 37.375V34.75H38.625C37.6875 36.4375 35 36.75 35 36.75V37.4375C36.75 37.8125 36.5625 38.625 36.5625 38.625C36.5625 38.625 36.625 42.8125 36.625 44.125C36.625 45.4375 36.1875 45.1875 36.1875 45.1875L35 45.4375V46.1875C36.25 45.8125 40.6875 46.1875 40.6875 46.1875L40.75 45.4375C39.4375 45.25 39.3125 44.4375 39.3125 44.4375V38.25C40.5 37.1875 41.625 36.8125 41.625 36.8125C43.9375 36.25 44.125 38.5 44.125 38.5L44.1875 44.1875C44.625 45.6875 42.4375 45.4375 42.4375 45.4375L42.5 46.1875L45.9375 45.9375L48.25 46.1875V45.4375C47.125 45.25 47.0625 45.25 47 44.375ZM55.125 35.125C50.125 35.125 49.875 39.625 49.875 39.625C49.875 39.625 49 46.4375 55.125 46.4375C59.0625 46.4375 60.25 44.1875 60.25 44.1875L59.5 43.5C59.5 43.5 53.625 47.75 52.875 39.6875H60.3125C60.25 39.625 60.125 35.125 55.125 35.125ZM57.4375 38.8125H52.8125V38.5C52.8125 37.1875 53.875 36.0625 55.25 36.0625C56.4375 36.0625 57.4375 37.0625 57.4375 38.25V38.8125ZM68.375 39.8125C66.6875 39.5 65.5625 39.0625 65.5625 39.0625C65.5625 39.0625 62.9375 38 65.25 36.4375C67.8125 35.125 69.3125 38.875 69.3125 38.875C69.3125 38.875 69.875 39 70.25 38.6875C70.375 38.3125 69.9375 36.0625 69.9375 36.0625C69.9375 36.0625 69.125 35.0625 65.0625 35.375C65.0625 35.375 62.875 35.875 62.5 37.9375C62.125 40 63.4375 41.125 63.4375 41.125C63.4375 41.125 64 41.9375 65.9375 42.125C67.625 42.3125 68.375 43 68.375 43C68.375 43 69.25 43.8125 68.3125 44.8125C67.375 45.8125 66.125 45.4375 66.125 45.4375C66.125 45.4375 64.6875 45.5 63 42.5625L62.1875 42.625L62.5 45.5625C62.5 45.5625 66.5 47.8125 69.5625 45.5625C72.6875 42.75 70.0625 40.125 68.375 39.8125ZM79.4375 44.125C77.5 45.75 77.125 43.8125 77.125 43.8125V37.1875H79.75V35.9375H77.25V33.25H76.4375C75.3125 35.625 72.8125 36.4375 72.8125 36.4375V36.9375C72.8125 37.25 73.0625 37.25 73.0625 37.25H74.3125C74.3125 37.25 74.1875 42.0625 74.25 43.75C74.3125 45.4375 75.5 45.9375 75.5 45.9375C75.5 45.9375 76.3125 46.375 77.625 46.25C78.9375 46.125 79.875 44.8125 79.875 44.8125L79.4375 44.125Z" fill="#DF234F"/>
</svg>
