<svg width="80" height="80" viewBox="0 0 80 80" fill="none" xmlns="http://www.w3.org/2000/svg">
<path d="M71.4532 50.4681C71.272 50.4681 71.092 50.4206 70.9332 50.3281L69.277 49.3481C69.0295 49.21 69.1501 49.1606 69.232 49.1325C69.562 49.0175 69.6289 48.9906 69.9807 48.7919C70.0176 48.7712 70.0657 48.7787 70.1039 48.8012L71.3757 49.5569C71.3994 49.5695 71.4258 49.5761 71.4526 49.5761C71.4794 49.5761 71.5058 49.5695 71.5295 49.5569L76.4901 46.6937C76.5135 46.68 76.5328 46.6603 76.5462 46.6367C76.5596 46.6131 76.5665 46.5865 76.5664 46.5594V40.8344C76.5664 40.8069 76.5593 40.7798 76.5459 40.7558C76.5324 40.7319 76.513 40.7118 76.4895 40.6975L71.5307 37.8369C71.5073 37.8239 71.4809 37.8172 71.4542 37.8172C71.4274 37.8172 71.4011 37.8239 71.3776 37.8369L66.4195 40.6981C66.396 40.7123 66.3765 40.7323 66.3628 40.7561C66.3491 40.78 66.3418 40.8069 66.3414 40.8344V46.5594C66.3414 46.6144 66.372 46.6662 66.4195 46.6919L67.7782 47.4775C68.5157 47.8456 68.9676 47.4119 68.9676 46.9756V41.3225C68.9676 41.2431 69.032 41.18 69.1114 41.18H69.7407C69.8189 41.18 69.8839 41.2431 69.8839 41.3225V46.9756C69.8839 47.9594 69.3482 48.5237 68.4151 48.5237C68.1282 48.5237 67.9026 48.5237 67.2726 48.2137L65.972 47.465C65.8138 47.3727 65.6825 47.2407 65.5912 47.0819C65.5 46.9231 65.452 46.7431 65.452 46.56V40.835C65.452 40.4631 65.6501 40.1162 65.972 39.9312L70.9326 37.0644C71.0925 36.9773 71.2716 36.9317 71.4536 36.9317C71.6356 36.9317 71.8147 36.9773 71.9745 37.0644L76.9351 39.9312C77.2564 40.1169 77.4557 40.4637 77.4557 40.835V46.56C77.4554 46.7431 77.4072 46.923 77.3159 47.0818C77.2246 47.2405 77.0933 47.3726 76.9351 47.465L71.9745 50.3287C71.8162 50.4206 71.6363 50.4687 71.4532 50.4681ZM72.9864 46.5237C70.8145 46.5237 70.3601 45.5268 70.3601 44.6912C70.3603 44.6532 70.3755 44.6168 70.4024 44.59C70.4294 44.5632 70.4659 44.5481 70.5039 44.5481H71.1451C71.1794 44.548 71.2127 44.5601 71.2388 44.5824C71.2649 44.6046 71.2822 44.6355 71.2876 44.6694C71.3839 45.3225 71.6732 45.6519 72.9864 45.6519C74.0307 45.6519 74.4757 45.4156 74.4757 44.8606C74.4757 44.5406 74.3495 44.3037 72.7257 44.1444C71.3682 44.01 70.5289 43.7106 70.5289 42.6237C70.5289 41.6231 71.3726 41.0256 72.7864 41.0256C74.3757 41.0256 75.162 41.5775 75.2614 42.7612C75.2629 42.7811 75.2604 42.8012 75.254 42.8201C75.2475 42.839 75.2373 42.8564 75.2239 42.8712C75.2103 42.8854 75.194 42.8968 75.176 42.9046C75.1579 42.9125 75.1385 42.9166 75.1189 42.9169H74.4745C74.442 42.9169 74.4104 42.9058 74.3851 42.8855C74.3597 42.8651 74.3421 42.8367 74.3351 42.805C74.1801 42.1175 73.8051 41.8981 72.7857 41.8981C71.6451 41.8981 71.5126 42.2962 71.5126 42.5931C71.5126 42.9537 71.6689 43.0587 73.2095 43.2625C74.7339 43.4644 75.4582 43.7493 75.4582 44.8212C75.4589 45.9044 74.5576 46.5237 72.9864 46.5237ZM61.2389 42.7687C61.4345 42.6544 61.5551 42.4456 61.5551 42.2187V40.7475C61.5551 40.5212 61.4351 40.3125 61.2389 40.1981L56.0114 37.1631C55.9147 37.1069 55.8049 37.0772 55.6931 37.077C55.5813 37.0767 55.4714 37.106 55.3745 37.1619L50.1145 40.1987C50.018 40.2546 49.9379 40.3348 49.8822 40.4313C49.8265 40.5278 49.7971 40.6373 49.797 40.7487V46.8212C49.797 47.0494 49.9195 47.2606 50.1182 47.3737L55.3451 50.3519C55.5376 50.4625 55.7739 50.4631 55.9682 50.3556L59.1295 48.5981C59.1787 48.5708 59.2198 48.5309 59.2485 48.4825C59.2772 48.4341 59.2925 48.3789 59.2929 48.3226C59.2933 48.2664 59.2787 48.211 59.2507 48.1622C59.2226 48.1134 59.1821 48.073 59.1332 48.045L53.8407 45.0075C53.7922 44.9798 53.7518 44.9398 53.7237 44.8915C53.6956 44.8432 53.6808 44.7884 53.6807 44.7325V42.8287C53.6807 42.715 53.7414 42.6106 53.8395 42.5543L55.4876 41.6044C55.5357 41.5764 55.5904 41.5617 55.6461 41.5617C55.7017 41.5617 55.7564 41.5764 55.8045 41.6044L57.4526 42.5543C57.501 42.582 57.5411 42.622 57.5691 42.6702C57.5971 42.7183 57.6119 42.773 57.612 42.8287V44.3262C57.6117 44.3822 57.6262 44.4373 57.6541 44.4859C57.6819 44.5344 57.7222 44.5747 57.7707 44.6027C57.8192 44.6306 57.8743 44.6452 57.9303 44.645C57.9863 44.6447 58.0412 44.6296 58.0895 44.6012L61.2389 42.7687ZM55.6151 42.4837C55.6337 42.4733 55.6547 42.4679 55.6761 42.4679C55.6974 42.4679 55.7184 42.4733 55.737 42.4837L56.7464 43.0669C56.7839 43.0887 56.807 43.1293 56.807 43.1725V44.3381C56.807 44.3819 56.7839 44.4219 56.7464 44.4437L55.737 45.0262C55.7185 45.037 55.6975 45.0427 55.6761 45.0427C55.6546 45.0427 55.6336 45.037 55.6151 45.0262L54.6064 44.4437C54.5877 44.4331 54.5722 44.4177 54.5615 44.3992C54.5507 44.3806 54.5451 44.3596 54.5451 44.3381V43.1725C54.5451 43.1293 54.5682 43.0887 54.6064 43.0669L55.6151 42.4837ZM41.927 44.9087C41.927 44.965 41.897 45.0175 41.8476 45.0462L40.0414 46.0875C40.0173 46.1016 39.9899 46.109 39.962 46.109C39.9341 46.109 39.9067 46.1016 39.8826 46.0875L38.0764 45.0462C38.0523 45.0322 38.0323 45.0122 38.0183 44.9881C38.0044 44.9639 37.9971 44.9366 37.997 44.9087V42.8225C37.997 42.7662 38.0276 42.7131 38.0764 42.6844L39.8826 41.6419C39.9067 41.6274 39.9342 41.6198 39.9623 41.6198C39.9904 41.6198 40.0179 41.6274 40.042 41.6419L41.8489 42.6844C41.8728 42.6986 41.8926 42.7188 41.9064 42.743C41.9202 42.7672 41.9275 42.7946 41.9276 42.8225V44.9087H41.927ZM42.4151 29.4612C42.3667 29.4348 42.3122 29.4213 42.257 29.4222C42.2019 29.423 42.1478 29.4382 42.1002 29.4661C42.0527 29.4941 42.0131 29.5339 41.9855 29.5816C41.9579 29.6294 41.9431 29.6835 41.9426 29.7387V37.8106C41.9425 37.8495 41.9322 37.8877 41.9128 37.9215C41.8934 37.9552 41.8655 37.9834 41.832 38.0031C41.7981 38.0224 41.7598 38.0326 41.7207 38.0326C41.6817 38.0326 41.6434 38.0224 41.6095 38.0031L40.292 37.2437C40.1955 37.1882 40.0861 37.1589 39.9748 37.1589C39.8635 37.1589 39.7541 37.1882 39.6576 37.2437L34.3964 40.28C34.2997 40.3358 34.2194 40.416 34.1636 40.5127C34.1077 40.6093 34.0783 40.719 34.0782 40.8306V46.905C34.0782 47.1318 34.1995 47.3412 34.3957 47.4556L39.657 50.4937C39.8532 50.6075 40.0957 50.6075 40.2926 50.4937L45.5551 47.4556C45.6516 47.3996 45.7317 47.3193 45.7874 47.2227C45.8431 47.1261 45.8725 47.0165 45.8726 46.905V31.7631C45.8726 31.5331 45.7476 31.3206 45.547 31.2081L42.4151 29.4612ZM23.8989 37.1294C23.9954 37.0735 24.1049 37.0441 24.2164 37.0441C24.3279 37.0441 24.4374 37.0735 24.5339 37.1294L29.7951 40.165C29.9914 40.2787 30.1126 40.4887 30.1126 40.7156V46.7918C30.1126 47.0187 29.9914 47.2287 29.7951 47.3425L24.5345 50.3806C24.4378 50.4362 24.3282 50.4655 24.2167 50.4655C24.1051 50.4655 23.9956 50.4362 23.8989 50.3806L18.6395 47.3425C18.543 47.2865 18.4629 47.2062 18.4072 47.1096C18.3515 47.0129 18.3221 46.9034 18.322 46.7918V40.715C18.322 40.4887 18.4432 40.2787 18.6395 40.165L23.8989 37.1294ZM14.3314 40.665C14.3314 40.4362 14.2114 40.2262 14.0139 40.1131L8.75449 37.0862C8.66616 37.035 8.56654 37.0065 8.46449 37.0031H8.41012C8.30809 37.0065 8.20848 37.0351 8.12012 37.0862L2.86012 40.1131C2.76335 40.1691 2.68302 40.2496 2.62718 40.3465C2.57135 40.4433 2.54197 40.5532 2.54199 40.665L2.55324 48.815C2.55324 48.9287 2.61262 49.0344 2.71199 49.0894C2.75958 49.1182 2.81416 49.1335 2.8698 49.1335C2.92545 49.1335 2.98003 49.1182 3.02762 49.0894L6.15262 47.2994C6.35012 47.1819 6.47074 46.975 6.47074 46.7481V42.9406C6.47074 42.7131 6.59074 42.5037 6.78762 42.39L8.11887 41.6237C8.21509 41.5672 8.32476 41.5376 8.43637 41.5381C8.54512 41.5381 8.65637 41.5656 8.75324 41.6237L10.0832 42.39C10.2801 42.5037 10.4014 42.7131 10.4014 42.9406V46.7481C10.4014 46.975 10.5232 47.1831 10.7195 47.2994L13.8445 49.0894C13.8927 49.1169 13.9472 49.1313 14.0027 49.1312C14.0582 49.131 14.1127 49.1164 14.1608 49.0886C14.2089 49.0608 14.2488 49.021 14.2766 48.973C14.3045 48.9249 14.3193 48.8705 14.3195 48.815L14.3314 40.665Z" fill="#83CD29"/>
</svg>
