<svg width="80" height="80" viewBox="0 0 80 80" fill="none" xmlns="http://www.w3.org/2000/svg">
<path fill-rule="evenodd" clip-rule="evenodd" d="M39.6307 62.6369C40.7507 63.5631 42.0638 63.9581 43.4813 64.0312C44.0676 64.0619 44.6707 64.0331 45.2476 63.9281C46.1626 63.7619 47.0751 63.5531 47.9651 63.285C49.7776 62.7381 51.3438 61.7931 52.5132 60.2669C53.1795 59.3969 53.7263 58.4562 54.0776 57.4162C54.3676 56.5581 54.6401 55.6912 54.857 54.8131C55.0282 54.1212 55.1132 53.4069 55.217 52.7C55.2863 52.2325 55.3282 51.76 55.3713 51.2881C55.4413 50.5225 55.5145 49.7581 55.5651 48.9906C55.6007 48.4569 55.5995 47.9206 55.6201 47.3862C55.627 47.2231 55.6532 47.0613 55.6688 46.8994C55.682 46.7488 55.7582 46.6969 55.912 46.6994C56.452 46.7075 56.9932 46.7212 57.5326 46.6969C58.137 46.67 58.7457 46.6437 59.3407 46.5444C60.1874 46.4026 61.0274 46.2232 61.8582 46.0069C62.8382 45.75 63.7376 45.2906 64.6038 44.7681C65.6113 44.1587 66.5313 43.4444 67.2757 42.5238C67.9251 41.7225 68.2326 40.7938 68.0757 39.7806C67.8482 38.3088 66.6113 37.3444 65.1732 37.2788C64.652 37.255 64.1232 37.31 63.6045 37.3756C62.9763 37.4556 62.3576 37.5969 61.7313 37.69C61.2988 37.755 60.8607 37.7838 60.4295 37.8288L60.4176 37.7725C61.2238 36.2494 62.0638 34.7437 62.8263 33.2C63.412 32.015 63.912 30.7881 64.4288 29.5694C65.2851 27.5519 65.9682 25.4725 66.5345 23.3581C67.0763 21.3344 67.5401 19.2887 67.687 17.1888C67.7457 16.3506 67.7863 15.5088 67.7807 14.6694C67.777 13.9994 67.7045 13.3287 67.6376 12.6612C67.5613 11.8962 67.3301 11.1712 67.0101 10.4737C66.5888 9.55375 65.9345 8.79937 65.2463 8.08312C64.6957 7.50937 64.0895 6.98688 63.4888 6.46438C62.632 5.71938 61.6682 5.12375 60.6682 4.59563C59.5347 3.99353 58.3338 3.52779 57.0907 3.20812C56.3332 3.01714 55.5709 2.84604 54.8045 2.695C54.532 2.64 54.257 2.5 53.9826 2.5H48.8151C48.6282 2.5 48.4432 2.6225 48.2551 2.64313C47.0184 2.77811 45.7972 3.03029 44.6082 3.39625C44.1645 3.53313 43.7595 3.45312 43.3376 3.41375C43.0138 3.38375 42.6957 3.30063 42.372 3.28438C41.1401 3.22313 39.907 3.13437 38.6745 3.1475C37.4945 3.16 36.3263 3.355 35.1845 3.67875C34.2288 3.95125 33.2932 4.28188 32.4357 4.785C32.0695 5 31.7782 4.95938 31.3988 4.85063C30.1247 4.47737 28.8396 4.14305 27.5451 3.84812C26.7382 3.6675 25.9076 3.57625 25.0832 3.49125C24.292 3.40907 23.4978 3.35966 22.7026 3.34312C21.9263 3.32625 21.1451 3.32688 20.372 3.39563C19.1413 3.505 17.9345 3.755 16.7607 4.15875C15.4669 4.6011 14.2579 5.26076 13.1857 6.10937C12.092 6.975 11.2145 8.03062 10.5101 9.2375C9.76696 10.5106 9.25634 11.8738 8.94009 13.3044C8.76821 14.08 8.83134 14.8775 8.71321 15.665C8.67696 15.9087 8.75009 16.1538 8.75009 16.3988V19.8269C8.75009 20.0544 8.68321 20.2825 8.71196 20.5112C8.78259 21.0606 8.75821 21.6144 8.85134 22.16C8.99759 23.0238 9.12946 23.8844 9.30696 24.7419C9.55509 25.94 9.79196 27.1369 10.067 28.3294C10.267 29.1975 10.4838 30.0606 10.722 30.9188C11.0845 32.23 11.4382 33.5431 11.8488 34.8387C12.2307 36.0431 12.6657 37.23 13.1001 38.4175C13.6953 40.0595 14.4248 41.6497 15.2813 43.1719C16.0282 44.4912 16.8801 45.7269 18.0238 46.7425C18.7782 47.4125 19.6163 47.9269 20.592 48.1844C21.3541 48.3868 22.1529 48.409 22.9251 48.2494C23.8202 48.0675 24.6565 47.667 25.3595 47.0837C25.442 47.0169 25.5313 46.965 25.6295 47.0888C26.0007 47.5588 26.497 47.8725 27.0163 48.1431C28.4176 48.8744 29.9445 49.0938 31.4951 49.1825C31.8713 49.2038 32.2501 49.15 32.6282 49.14C33.3663 49.1194 34.0826 48.9756 34.787 48.7719C35.157 48.665 35.5176 48.5288 35.8938 48.4025C35.9132 48.8031 35.9382 49.1881 35.9507 49.5737L36.0026 51.6756C36.0126 51.9956 36.0251 52.3156 36.0545 52.6344C36.1307 53.4556 36.2051 54.2769 36.3032 55.0956C36.3707 55.66 36.442 56.2281 36.5745 56.7794C36.8408 57.8903 37.2052 58.9753 37.6632 60.0219C38.1017 61.0376 38.7762 61.9341 39.6307 62.6369ZM37.3863 52.1569C37.342 51.17 37.3088 50.1826 37.287 49.195C37.2607 47.9812 37.252 46.7669 37.2351 45.5531L37.232 45.5069C36.6151 45.8775 36.007 46.2825 35.3638 46.6169C34.6095 47.0087 33.7907 47.2356 32.9426 47.3C32.2782 47.35 31.6038 47.3956 30.9426 47.3431C29.8576 47.255 28.7726 47.0856 27.8013 46.5506C27.4076 46.3338 26.9963 46.0694 26.7245 45.7237C26.0738 44.8931 26.3857 43.8438 27.367 43.3388C28.0451 42.9888 28.7851 42.8431 29.5201 42.6731C30.1599 42.5281 30.793 42.355 31.4176 42.1544C32.0338 41.9525 32.4226 41.4525 32.807 40.9619L33.4157 40.1794L32.6838 40.1031C31.9576 40.0356 31.2645 39.835 30.602 39.5412C30.0357 39.2906 30.027 39.2631 29.6107 39.7144C28.917 40.4675 28.242 41.2394 27.5613 42.0056C27.0607 42.5694 26.5638 43.1362 26.0645 43.7019C25.572 44.2612 25.1095 44.8519 24.5776 45.3719C23.7888 46.1444 22.8376 46.6087 21.7026 46.5562C20.9745 46.5225 20.3082 46.2675 19.7082 45.8506C18.4713 44.9894 17.6382 43.7831 16.8788 42.5175C15.907 40.895 15.1601 39.1669 14.522 37.3919C14.0801 36.1644 13.6357 34.9362 13.2507 33.6912C12.8313 32.3381 12.4632 30.9694 12.1013 29.5994C11.8276 28.5662 11.5851 27.5244 11.3538 26.4806C11.0876 25.2942 10.8413 24.1034 10.6151 22.9087C10.4645 22.1019 10.3776 21.2831 10.2557 20.4713C10.0913 19.3756 10.0613 18.2712 10.1213 17.1719C10.1745 16.1813 10.3163 15.1938 10.4576 14.21C10.6532 12.8488 11.102 11.5644 11.747 10.3513C12.1448 9.612 12.6325 8.92472 13.1988 8.305C14.1301 7.27437 15.257 6.53 16.5107 5.97063C17.3863 5.58 18.312 5.34563 19.2551 5.16125C20.6551 4.88875 22.0676 4.9 23.4801 4.92875C24.0976 4.94187 24.7132 5.05375 25.3301 5.11563C26.6588 5.2475 27.9607 5.5275 29.2463 5.87188C30.1838 6.12313 31.102 6.44937 32.0307 6.73187C32.1232 6.76 32.2601 6.7575 32.337 6.70813C33.5963 5.88562 34.972 5.34313 36.4363 5.0325C36.992 4.915 37.5657 4.86313 38.1338 4.82687C38.8238 4.78375 39.5207 4.7425 40.2095 4.78312C41.0376 4.83062 41.8632 4.9525 42.6863 5.065C43.0863 5.12 43.4763 5.25812 43.8763 5.29562C44.0688 5.31375 44.272 5.17438 44.4745 5.12687C45.5082 4.8875 46.5376 4.62187 47.5807 4.43375C48.357 4.29375 49.1507 4.2275 49.9395 4.1825C50.8207 4.13187 51.707 4.095 52.587 4.1375C53.6995 4.19125 54.8038 4.34937 55.8938 4.60312C57.2451 4.9175 58.5401 5.37375 59.772 6.0075C60.6926 6.48188 61.567 7.03063 62.3551 7.70563C62.8713 8.14875 63.4001 8.58563 63.8657 9.07938C64.4407 9.68813 65.027 10.2963 65.3882 11.0756C65.6601 11.6638 65.8538 12.2725 65.9076 12.9156C65.9738 13.7163 66.0545 14.5194 66.0476 15.3212C66.0407 16.0875 65.9357 16.8531 65.862 17.6181C65.6926 19.3606 65.3145 21.0656 64.8538 22.7481C64.4695 24.1379 64.034 25.513 63.5482 26.8706C63.1051 28.1225 62.5932 29.3513 62.0763 30.5756C61.6954 31.4821 61.2817 32.3746 60.8363 33.2512C59.9901 34.9087 59.1101 36.5494 58.092 38.1119C57.9163 38.3812 57.7495 38.6575 57.5782 38.9331C58.0226 39.2325 58.5257 39.3381 59.032 39.3931C59.5138 39.445 60.0051 39.4769 60.4863 39.4406C61.257 39.3831 62.0251 39.2731 62.7913 39.1663C63.5501 39.06 64.2932 38.8444 65.0732 38.9012C65.8507 38.9581 66.4082 39.5494 66.3551 40.2781C66.3213 40.7394 66.1095 41.135 65.8032 41.4731C64.3563 43.0694 62.5401 44.0369 60.4626 44.5137C59.6732 44.695 58.8595 44.7881 58.0513 44.8637C57.3612 44.9247 56.6679 44.941 55.9757 44.9125C55.4682 44.8937 54.9651 44.7775 54.4463 44.7025C54.3938 45.1769 54.3445 45.6712 54.2845 46.1637L54.0426 48.0531C53.9695 48.6519 53.9126 49.2531 53.837 49.8519C53.7632 50.4331 53.6713 51.0112 53.5938 51.5919C53.522 52.1325 53.4688 52.6763 53.3876 53.2163C53.2645 54.0438 53.1463 54.8731 52.9845 55.6944C52.7907 56.6756 52.4945 57.6256 52.0088 58.5112C51.4176 59.5919 50.5795 60.415 49.512 61.0244C48.412 61.6525 47.2088 61.9794 45.9907 62.2531C45.127 62.4475 44.2388 62.4787 43.3645 62.3994C41.8488 62.2625 40.5551 61.6144 39.577 60.4388C38.6438 59.3169 38.012 58.0319 37.7863 56.5763C37.6801 55.8836 37.5976 55.1876 37.5388 54.4894C37.4712 53.7131 37.4203 52.9354 37.3863 52.1569ZM39.0901 42.1856C39.0995 42.7044 39.0457 43.2231 39.0482 43.7419C39.0588 46.1562 39.0763 48.5713 39.097 50.9863C39.1007 51.3806 39.1201 51.7762 39.1482 52.17C39.2076 52.995 39.2663 53.8206 39.3463 54.6431C39.4038 55.2275 39.482 55.81 39.5738 56.39C39.7051 57.2106 40.0788 57.9419 40.5026 58.6412C40.8676 59.2425 41.3432 59.7525 41.9688 60.105C43.0326 60.7031 44.177 60.7531 45.3307 60.5331C46.1101 60.385 46.8763 60.1456 47.6326 59.8988C48.3769 59.66 49.0565 59.2535 49.6188 58.7106C50.1495 58.1969 50.5257 57.57 50.7795 56.8781C51.2713 55.5369 51.4257 54.1238 51.6288 52.7225C51.7051 52.1975 51.7713 51.6712 51.8407 51.1456C51.9201 50.5475 52.0001 49.95 52.0763 49.3519C52.1338 48.9056 52.1851 48.46 52.2395 48.0144C52.3176 47.3744 52.3995 46.735 52.4738 46.095C52.5307 45.6 52.5782 45.1031 52.6295 44.6069C52.6945 43.9725 52.7638 43.34 52.8207 42.7044C52.8632 42.2231 52.8457 41.7325 52.9313 41.2594C53.0882 40.3925 53.4982 39.655 54.267 39.1775C54.5882 38.9787 54.952 38.8475 55.3082 38.6787L55.247 38.5856C54.9176 38.1581 54.5801 37.7375 54.257 37.305C53.7495 36.6263 53.3845 35.8694 53.0176 35.1087C52.6701 34.3875 52.2451 33.705 51.8795 32.9919C51.2413 31.7481 50.5913 30.5075 50.0032 29.2406C49.2638 27.6469 48.6813 25.9981 48.4982 24.2331C48.4201 23.4869 48.4001 22.7406 48.552 22.0012C48.7938 20.82 49.4101 19.8962 50.4476 19.2625C51.4101 18.675 52.482 18.485 53.5801 18.4256C54.2613 18.3888 54.947 18.4187 55.6538 18.4187L55.6307 18.2994C55.1907 17.3794 54.7801 16.4438 54.2982 15.5463C53.6195 14.2788 52.7495 13.1362 51.782 12.0756C51.068 11.287 50.2835 10.5652 49.4382 9.91938C48.602 9.28625 47.7207 8.72062 46.7801 8.25875C45.6627 7.70292 44.4826 7.28326 43.2651 7.00875C42.087 6.7475 40.9026 6.5875 39.6938 6.57438C38.6638 6.56313 37.6401 6.61062 36.6363 6.8425C35.1213 7.19312 33.7357 7.81687 32.5313 8.82688C31.8643 9.38604 31.2683 10.025 30.757 10.7294C30.1526 11.5575 29.6663 12.4537 29.2501 13.3919C28.6788 14.68 28.287 16.0194 28.0182 17.3969C27.8845 18.0844 27.7795 18.7763 27.6726 19.4681C27.6351 19.7113 27.6326 19.9581 27.6101 20.2362L28.0676 19.9981L28.5138 19.7981C30.0245 19.1075 31.5888 18.6631 33.2701 18.7137C33.9851 18.735 34.6676 18.8769 35.3038 19.19C36.5226 19.7913 37.2351 20.8131 37.5451 22.1056C37.7588 22.9981 37.9057 23.9081 38.0482 24.8162C38.1595 25.525 38.2738 26.2413 38.2863 26.9563C38.3045 28.0013 38.252 29.0487 38.1951 30.0931C38.1465 30.9812 37.9627 31.8567 37.6501 32.6894C37.0851 34.1994 36.4551 35.685 35.867 37.1862C35.6726 37.6825 35.5232 38.1956 35.3401 38.7412L36.0826 38.7419C36.1726 38.7438 36.2645 38.7463 36.3513 38.7669C37.027 38.9263 37.6138 39.2325 38.0945 39.7525C38.737 40.4425 39.0732 41.25 39.0901 42.1856ZM26.1857 35.0262C25.8028 34.1251 25.5717 33.1667 25.502 32.19C25.437 31.2688 25.5463 30.3525 25.6413 29.435C25.7326 28.5469 25.8101 27.6544 25.8363 26.7631C25.8807 25.2962 25.782 23.8331 25.712 22.3675C25.6701 21.495 25.7713 20.6119 25.8488 19.7375C25.9188 18.95 26.0063 18.1606 26.1557 17.3844C26.4051 16.0819 26.737 14.7981 27.2088 13.5538C27.6557 12.3738 28.1707 11.2256 28.8957 10.1912C29.3938 9.48125 29.9576 8.81938 30.4995 8.12563L30.3382 8.06813C28.5738 7.50813 26.7801 7.06937 24.9345 6.87875C24.0626 6.78812 23.187 6.73562 22.3126 6.68313C22.0438 6.6675 21.7713 6.70375 21.502 6.72937C20.8351 6.79375 20.1595 6.81875 19.5032 6.94375C18.3863 7.15625 17.3145 7.51375 16.3226 8.09562C15.4448 8.61214 14.6752 9.29363 14.0563 10.1025C13.3645 10.9969 12.8976 12.0081 12.5632 13.0856C12.1682 14.3575 11.9795 15.6669 11.9288 16.9875C11.8845 18.1456 11.8626 19.31 12.0626 20.4638C12.2107 21.3219 12.3101 22.19 12.4738 23.0456C12.694 24.2122 12.9411 25.3736 13.2151 26.5287C13.6107 28.1812 14.007 29.835 14.4763 31.4675C14.9251 33.0306 15.4307 34.58 15.9807 36.1113C16.4295 37.3606 16.9488 38.5869 17.4957 39.7962C17.852 40.5844 18.2832 41.3431 18.7357 42.0806C19.2163 42.8644 19.7638 43.6081 20.5051 44.1769C21.442 44.8944 22.1663 45.0062 23.1188 44.2181C23.5263 43.8812 23.8707 43.4637 24.2257 43.0669C24.7888 42.4369 25.3326 41.7881 25.8938 41.155C26.6082 40.3494 27.3313 39.5519 28.0495 38.7487C28.2013 38.5794 28.3482 38.4044 28.4957 38.2331L28.2501 38.0188C27.3646 37.1729 26.662 36.1544 26.1857 35.0262ZM53.2738 11.0244C53.8612 11.7067 54.4184 12.4145 54.9438 13.1456C55.9509 14.5578 56.7614 16.1002 57.3532 17.7306C57.6157 18.4525 57.8257 19.1812 57.732 19.9706C57.667 20.5238 57.6713 21.0844 57.6232 21.6406C57.5826 22.1031 57.5088 22.5631 57.4495 23.0244C57.3595 23.7194 57.2295 24.4131 57.1907 25.1113C57.1532 25.7763 57.1926 26.4475 57.2345 27.1131C57.2763 27.79 57.3676 28.4638 57.4295 29.1388C57.4995 29.9056 57.5945 30.6706 57.6157 31.4387C57.6332 32.0687 57.577 32.7019 57.5226 33.3319C57.4527 34.0867 57.2694 34.8267 56.9788 35.5269C56.777 36.0231 56.5363 36.5031 56.3095 36.9994L56.4007 37.0956L56.5395 37.2031L56.6801 36.9531C57.8603 35.0961 58.9089 33.1587 59.8182 31.155C60.4012 29.8617 60.9543 28.5551 61.477 27.2362C62.2919 25.1861 62.9503 23.0772 63.4463 20.9275C63.6713 19.9625 63.8438 18.9825 63.9963 18.0025C64.1157 17.2363 64.2145 16.4613 64.237 15.6881C64.2601 14.8681 64.2151 14.0419 64.1395 13.2244C64.0826 12.6069 63.9301 11.9856 63.5438 11.4825C62.9213 10.6744 62.2501 9.90188 61.4245 9.29C60.7288 8.77563 60.0351 8.24625 59.2895 7.81375C58.1063 7.12687 56.8257 6.67063 55.4876 6.35938C54.1807 6.055 52.8582 5.92375 51.527 5.89562C50.742 5.87875 49.9532 5.96312 49.1701 6.0375C48.4601 6.10375 47.7545 6.2175 47.0401 6.31125C47.807 6.7425 48.5638 7.12625 49.2763 7.57812C50.7763 8.52812 52.1213 9.67125 53.2738 11.0244ZM33.7863 37.6263C34.2707 36.0762 34.9313 34.595 35.5707 33.1063C36.0901 31.8981 36.3732 30.6262 36.4676 29.3188C36.5145 28.6744 36.502 28.0219 36.4701 27.3756C36.439 26.6566 36.3731 25.9395 36.2726 25.2269C36.1382 24.3181 35.9857 23.4088 35.7707 22.5169C35.5376 21.5519 34.9501 20.8794 33.9426 20.6312C33.3295 20.4806 32.7195 20.4869 32.0988 20.585C30.5845 20.8231 29.1982 21.3813 27.907 22.1988C27.647 22.3631 27.5032 22.4963 27.5488 22.8681C27.6438 23.6581 27.6645 24.4606 27.6607 25.2575C27.6557 26.3856 27.6076 27.5138 27.5651 28.6413C27.5513 29.0081 27.4982 29.3744 27.4582 29.74C27.3982 30.3 27.2813 30.8594 27.2851 31.4188C27.2888 31.995 27.3476 32.5844 27.4876 33.1425C27.932 34.9125 28.872 36.36 30.4138 37.3819C31.362 38.0106 32.4107 38.3269 33.5626 38.3875C33.6388 38.1231 33.7095 37.8737 33.7863 37.6263ZM31.9763 22.4456C31.7732 22.02 31.8895 21.6669 32.3595 21.5031C32.4745 21.4637 32.592 21.42 32.7107 21.4088C32.8751 21.3925 33.0407 21.4044 33.2063 21.4044C33.8032 21.4081 34.377 21.4913 34.8688 21.87C35.1851 22.1138 35.2701 22.4356 35.0651 22.7681C34.7745 23.2388 34.3326 23.475 33.7888 23.52C32.9332 23.5906 32.3326 23.1919 31.9763 22.4456ZM55.7107 22.29L55.9051 20.5869C55.9332 20.3594 55.8138 20.2969 55.6226 20.2913C55.0207 20.275 54.4195 20.2531 53.8176 20.2431C53.1401 20.2306 52.4795 20.3394 51.852 20.5969C51.1557 20.8838 50.6257 21.3425 50.4088 22.1006C50.2501 22.6593 50.2001 23.2431 50.2613 23.8206C50.3459 24.7142 50.5483 25.5926 50.8632 26.4331C51.2845 27.5537 51.7245 28.6737 52.2513 29.7475C52.9645 31.2006 53.7707 32.6081 54.5282 34.0394C54.7301 34.4213 54.9013 34.8206 55.112 35.2663C55.5373 34.3797 55.7695 33.413 55.7932 32.43C55.8138 31.6169 55.7495 30.8019 55.702 29.9887C55.6726 29.4912 55.602 28.9962 55.5538 28.5C55.487 27.8087 55.3845 27.1169 55.3682 26.4237C55.3526 25.7188 55.4026 25.01 55.4626 24.3056C55.5188 23.6319 55.6301 22.9625 55.7107 22.29ZM54.3551 21.7438C54.1313 22.3606 53.6538 22.7094 53.0338 22.8113C52.4563 22.9069 51.9501 22.6937 51.5738 22.2325C51.3057 21.9044 51.4082 21.5163 51.8101 21.2938C52.2713 21.0387 52.7782 20.9744 53.3763 20.9356C53.5395 20.965 53.7832 20.9906 54.0157 21.0562C54.3526 21.1512 54.4776 21.4062 54.3551 21.7438ZM36.4813 40.7456C36.1513 40.4756 35.7138 40.46 35.4001 40.7562C35.0101 41.125 34.667 41.5462 34.3238 41.9613C33.9282 42.4412 33.5557 42.94 33.0457 43.3119C32.3026 43.8525 31.4345 44.0762 30.5632 44.2881C29.8707 44.4569 29.1745 44.6138 28.4801 44.775L28.4713 44.865C28.6776 44.96 28.877 45.0794 29.0926 45.1475C30.152 45.4825 31.2301 45.65 32.3501 45.555C33.1576 45.4856 33.9276 45.3094 34.657 44.9638C35.6613 44.4881 36.4345 43.7337 37.0913 42.8575C37.2013 42.7113 37.2513 42.495 37.2638 42.3063C37.3082 41.64 36.9701 41.1444 36.4813 40.7456ZM55.822 40.4569C55.3026 40.6313 54.8801 40.8969 54.7545 41.4587C54.6688 41.8387 54.6376 42.2319 54.6045 42.6213C54.5982 42.69 54.6838 42.8162 54.7488 42.8337C55.1488 42.9394 55.5513 43.0637 55.9601 43.1006C56.4632 43.1462 56.9745 43.1319 57.4807 43.1069C58.027 43.0794 58.577 43.0437 59.1157 42.9538C60.3838 42.74 61.612 42.3937 62.702 41.6738C63.0957 41.4144 63.4845 41.1494 63.8757 40.8856L63.8432 40.83C63.4263 40.8919 63.0107 40.9675 62.592 41.0119C61.7395 41.1031 60.8863 41.1994 60.0307 41.2487C59.6176 41.2725 59.1988 41.1931 58.7826 41.1594C58.0838 41.1025 57.4013 40.9475 56.8107 40.5737C56.4701 40.3587 56.1851 40.335 55.822 40.4569Z" fill="#336791"/>
<path d="M1.77197 64.49C2.66934 64.3445 3.57726 64.2738 4.48635 64.2788C5.88322 64.2788 6.9076 64.6038 7.5576 65.1888C8.15885 65.7088 8.51635 66.505 8.51635 67.4806C8.51635 68.4719 8.22322 69.2519 7.67072 69.8206C6.92322 70.6169 5.70447 71.0231 4.32322 71.0231C3.90072 71.0231 3.51072 71.0069 3.18635 70.9256V75.3138H1.77197V64.49ZM3.18635 69.7713C3.4951 69.8525 3.8851 69.885 4.35635 69.885C6.06197 69.885 7.1026 69.0563 7.1026 67.545C7.1026 66.0988 6.07885 65.4 4.51885 65.4C3.90135 65.4 3.4301 65.4488 3.18635 65.5138V69.7713ZM17.0801 71.315C17.0801 74.2238 15.0645 75.4919 13.1632 75.4919C11.0345 75.4919 9.39322 73.9319 9.39322 71.445C9.39322 68.8125 11.1157 67.2688 13.2932 67.2688C15.5526 67.2681 17.0801 68.91 17.0801 71.315ZM10.8401 71.3963C10.8401 73.1188 11.8313 74.4188 13.2288 74.4188C14.5938 74.4188 15.617 73.135 15.617 71.3638C15.617 70.0313 14.9513 68.3413 13.2607 68.3413C11.5701 68.3413 10.8401 69.9013 10.8401 71.3963ZM18.6882 73.85C19.1107 74.1263 19.8582 74.4188 20.5732 74.4188C21.6132 74.4188 22.1007 73.8988 22.1007 73.2488C22.1007 72.5663 21.6951 72.1925 20.6382 71.8025C19.2245 71.2988 18.5582 70.5188 18.5582 69.5763C18.5582 68.3088 19.582 67.2688 21.272 67.2688C22.0682 67.2688 22.7676 67.4963 23.2063 67.7563L22.8488 68.7963C22.3652 68.4982 21.8082 68.3407 21.2401 68.3413C20.3951 68.3413 19.9238 68.8288 19.9238 69.4138C19.9238 70.0638 20.3957 70.3563 21.4195 70.7463C22.7845 71.2663 23.4832 71.9488 23.4832 73.1188C23.4832 74.5 22.4107 75.475 20.542 75.475C19.6807 75.475 18.8845 75.2638 18.332 74.9388L18.6882 73.85ZM27.0413 65.1881V67.4469H29.0882V68.5356H27.0413V72.7769C27.0413 73.7519 27.317 74.3044 28.1138 74.3044C28.3932 74.3084 28.6718 74.2756 28.9426 74.2069L29.0076 75.2794C28.732 75.3931 28.2926 75.4744 27.7407 75.4744C27.0745 75.4744 26.5376 75.2631 26.1964 74.8731C25.7907 74.4506 25.6438 73.7519 25.6438 72.8257V68.5356H24.4251V67.4469H25.6438V65.5619L27.0413 65.1881ZM37.3763 67.4475C37.3432 68.0163 37.3113 68.65 37.3113 69.6088V74.175C37.3113 75.9788 36.9538 77.0838 36.1901 77.7669C35.4263 78.4819 34.3213 78.7094 33.3301 78.7094C32.3876 78.7094 31.3476 78.4819 30.7132 78.0594L31.0707 76.9706C31.5907 77.2956 32.4032 77.5881 33.3782 77.5881C34.8407 77.5881 35.9132 76.8244 35.9132 74.8419V73.9644H35.8807C35.442 74.6956 34.597 75.2806 33.3782 75.2806C31.4282 75.2806 30.0307 73.6231 30.0307 71.445C30.0307 68.78 31.7695 67.2688 33.5732 67.2688C34.9388 67.2688 35.6863 67.9838 36.0276 68.6338H36.0601L36.1251 67.4475H37.3763ZM35.8976 70.5513C35.8976 70.3075 35.8813 70.0963 35.8163 69.9013C35.5563 69.0725 34.8576 68.39 33.8176 68.39C32.452 68.39 31.4776 69.5438 31.4776 71.3638C31.4776 72.9075 32.2576 74.1913 33.8013 74.1913C34.6788 74.1913 35.4751 73.6388 35.7838 72.7288C35.8651 72.485 35.8982 72.2088 35.8982 71.965V70.5513H35.8976ZM39.5857 69.9013C39.5857 68.975 39.5695 68.1788 39.5207 67.4475H40.7726L40.8207 68.9913H40.8857C41.2432 67.935 42.1045 67.2688 43.0632 67.2688C43.2257 67.2688 43.3389 67.285 43.4688 67.3175V68.6663C43.309 68.6315 43.1456 68.6151 42.982 68.6175C41.9745 68.6175 41.2589 69.3813 41.0645 70.4538C41.0243 70.6737 41.0026 70.8965 40.9995 71.12V75.3125H39.5857V69.9013ZM45.5338 71.64C45.5663 73.5738 46.8007 74.37 48.2307 74.37C49.2551 74.37 49.872 74.1913 50.4082 73.9638L50.652 74.9875C50.1482 75.215 49.287 75.475 48.0357 75.475C45.6145 75.475 44.1682 73.8825 44.1682 71.51C44.1682 69.1375 45.5657 67.2681 47.857 67.2681C50.4245 67.2681 51.107 69.5269 51.107 70.9731C51.107 71.2656 51.0745 71.4931 51.0582 71.6394H45.5338V71.64ZM49.7263 70.6163C49.742 69.7063 49.352 68.2925 47.7438 68.2925C46.2976 68.2925 45.6638 69.625 45.5495 70.6163H49.7263ZM52.732 73.59C53.4981 74.0502 54.3733 74.2971 55.267 74.305C56.7132 74.305 57.5582 73.5413 57.5582 72.4363C57.5582 71.4125 56.9732 70.8275 55.4945 70.2588C53.707 69.625 52.602 68.6988 52.602 67.155C52.602 65.4488 54.0157 64.1813 56.1445 64.1813C57.2657 64.1813 58.0782 64.4413 58.5657 64.7175L58.1757 65.8713C57.5364 65.5276 56.8215 65.3489 56.0957 65.3513C54.6007 65.3513 54.032 66.245 54.032 66.9925C54.032 68.0163 54.6976 68.52 56.2095 69.105C58.062 69.8206 59.0045 70.7138 59.0045 72.3225C59.0045 74.0125 57.7532 75.475 55.1695 75.475C54.1132 75.475 52.9595 75.1663 52.3738 74.7763L52.732 73.59ZM69.9732 76.9213C68.5606 76.5506 67.1621 76.1278 65.7807 75.6538C65.5532 75.5725 65.3257 75.4913 65.1145 75.4913C62.5145 75.3938 60.2882 73.4763 60.2882 69.95C60.2882 66.44 62.4332 64.1813 65.3907 64.1813C68.3645 64.1813 70.2988 66.4888 70.2988 69.7225C70.2988 72.5338 68.9988 74.3375 67.1788 74.9713V75.0363C68.2676 75.3125 69.4538 75.5725 70.3801 75.735L69.9732 76.9213ZM68.8032 69.7875C68.8032 67.5938 67.6663 65.3344 65.342 65.3344C62.9532 65.3344 61.7832 67.5444 61.7995 69.9175C61.7832 72.2413 63.067 74.3375 65.277 74.3375C67.5363 74.3375 68.8032 72.29 68.8032 69.7875ZM72.1339 64.36H73.5482V74.1263H78.2282V75.3125H72.1339V64.36Z" fill="#336791"/>
</svg>
